<?xml version="1.0" encoding="UTF-8"?>
<!DOCTYPE svg PUBLIC "-//W3C//DTD SVG 1.1//EN" "http://www.w3.org/Graphics/SVG/1.1/DTD/svg11.dtd">
<!-- Creator: CorelDRAW X7 -->
<svg xmlns="http://www.w3.org/2000/svg" xml:space="preserve" width="291.857mm" height="396.24mm" version="1.1" style="shape-rendering:geometricPrecision; text-rendering:geometricPrecision; image-rendering:optimizeQuality; fill-rule:evenodd; clip-rule:evenodd"
viewBox="0 0 29186 39624"
 xmlns:xlink="http://www.w3.org/1999/xlink">
 <defs>
  <style type="text/css">
   <![CDATA[
    .fil4 {fill:black}
    .fil3 {fill:#BF209F;fill-rule:nonzero}
    .fil2 {fill:#D62A9D;fill-rule:nonzero}
    .fil0 {fill:#D64072;fill-rule:nonzero}
    .fil1 {fill:#ED317F;fill-rule:nonzero}
   ]]>
  </style>
 </defs>
 <g id="Capa_x0020_1">
  <metadata id="CorelCorpID_0Corel-Layer"/>
  <g id="_230284984">
   <path class="fil2" d="M1967 39147l25574 0 0 -1105 -25574 0 0 1105zm25574 -1582l0 -1104 -25574 0 0 1104 25574 0zm238 2059l-26051 0 -238 0 0 -239 0 -1343 0 -477 0 -1343 0 -238 238 0 26051 0 239 0 0 238 0 1343 0 477 0 1343 0 239 -239 0z"/>
   <path class="fil1" d="M25977 32407l-18065 3100 16527 0c281,-500 562,-1030 838,-1589 238,-482 472,-985 700,-1511zm-20903 3103l21254 -3647 427 -73 -167 399c-285,679 -581,1326 -884,1939 -302,611 -610,1190 -919,1735l-69 121 -138 0 -19464 0 -904 0 51 -334 813 -140z"/>
   <path class="fil2" d="M26727 31848l1 1 -23 56 -50 123 -131 23 -21123 3624 -1175 201 32 -211 1007 -443 23058 -10164 415 -182 -85 444c-180,948 -410,1942 -701,2971 -292,1031 -646,2097 -1075,3189 -30,76 -90,222 -150,368zm-412 -245c31,-77 66,-164 118,-297 423,-1077 773,-2128 1060,-3144 243,-856 442,-1686 605,-2483l-20872 9199 19089 -3275z"/>
   <path class="fil3" d="M27480 20835l-19351 12842 20136 -8875c105,-592 191,-1173 262,-1738 68,-542 120,-1060 160,-1551l-395 -222c-271,-152 -541,-304 -812,-456zm-21932 13984l21790 -14461 370 -246 0 305c273,152 545,305 817,458l528 297 133 74 -12 151c-42,548 -98,1124 -173,1725 -75,595 -170,1225 -291,1889l-22 126 -115 50 -22797 10048 -1557 686 38 -245 1291 -857z"/>
   <path class="fil0" d="M27138 16607l-18101 15585 18943 -12570c572,-548 -311,295 376,-361 105,-101 210,-201 315,-301l-125 -1989c-78,-37 -164,-73 -258,-109l0 -1c-141,-55 -301,-106 -480,-150l0 0c-140,-35 -275,-60 -403,-77 -94,-13 -183,-21 -267,-27zm-21293 17706l21055 -18129 72 -62 94 5c125,5 260,16 402,36 143,19 294,47 453,86l1 0c194,47 373,106 536,168l0 -1c158,61 300,126 424,189l122 62 9 136 140 2238 7 111 -80 76c-132,126 -264,252 -396,377 -957,916 -48,46 -395,377l-18 18 -14 9 -22125 14683 -1920 1273 44 -284 1589 -1368z"/>
   <path class="fil1" d="M8490 31694l18317 -15771 530 -671 511 -647 -345 -1231 -333 -1188 -1153 37 -17527 19471zm18641 -15421l-21170 18227 -67 58 -89 0 0 0 -535 0 358 -398 20103 -22331 67 -75 102 -3 1441 -46 187 -6 50 179 383 1367 378 1348 33 116 -75 95 -587 743 -548 692 -18 23 -13 11z"/>
   <path class="fil2" d="M8032 31103l17347 -19270c254,-372 508,-743 762,-1115l162 -237c-357,-575 -714,-1150 -1071,-1725l-328 -530c-564,145 -927,238 -1120,287l-15752 22590zm17711 -18962l-19920 22128 -1543 1715 -70 0 45 -294 1196 -1716 17995 -25806 51 -74 85 -21c1072,-273 1204,-307 1354,-345l19 -5 169 -44 92 149 421 678c384,619 768,1238 1152,1857l81 132 -87 127 -249 365c-257,376 -514,752 -771,1129l-10 14 -10 11z"/>
   <path class="fil3" d="M14439 18091c-503,627 -757,810 -1450,1149l207 -553 43 -116 6 -13 6 -14 6963 -13272 23 -44 40 -31c512,-411 608,-487 707,-565l313 -250 152 -122 150 126 2610 2210 132 112 -66 160c-177,427 -209,504 -244,588 -127,306 -234,562 -244,587l-10 24 -15 22 -18150 26030 -1300 1865 -102 0 45 -299 952 -1812 3892 -7416 18 -36 24 -23c15,-16 20,-21 25,-26l1 -1 15 -16 1 -1c211,-225 429,-454 648,-683 1256,-1319 2512,-2639 3458,-4200 407,-672 721,-1371 940,-2101 136,-452 235,-914 296,-1388 -28,36 -56,73 -86,109zm582 -1898l50 918c-26,833 -155,1630 -385,2396 -214,713 -517,1401 -905,2066l9576 -13734c164,-397 199,-481 234,-565l177 -427 -2327 -1971 -161 128c-313,250 -568,453 -668,532 -213,407 -7433,14364 -5591,10657zm-2536 7238c-722,900 -1516,1734 -2309,2568 -214,224 -428,448 -646,680l0 0 -14 15 0 0 -13 15 -2120 4038 5102 -7316z"/>
   <path class="fil0" d="M11528 19278c136,-28 331,-77 565,-160 174,-62 366,-141 567,-243 43,-21 81,-42 117,-62 17,-9 37,-21 58,-33l7145 -13615c55,-200 109,-399 164,-599 40,-147 80,-293 120,-440l-1294 -619 -1261 -603 -465 562 -518 626 -5788 15284c34,-4 69,-9 103,-14 165,-24 325,-51 479,-83l8 -1zm724 289c-259,91 -481,146 -637,178 -479,98 -637,113 -1015,149l-380 36 135 -357 5940 -15687 14 -38 25 -30 543 -656 583 -705 118 -142 168 80c476,228 952,456 1429,683 490,235 981,470 1473,705l179 86 -53 191c-57,210 -114,421 -172,631 -56,208 -113,416 -170,624l-7 25 -12 22 -7189 13700 -32 61 -59 35c-36,21 -76,44 -125,71 -46,26 -91,50 -133,71 -223,113 -434,200 -623,267z"/>
   <path class="fil1" d="M10710 3581c-18,-184 -36,-369 -72,-552l0 -4c-62,-317 -191,-693 -459,-1108 -274,-425 -694,-890 -1334,-1373l-719 -544 893 118c808,106 1938,324 3124,811 1193,489 2442,1249 3482,2441l1 1c125,144 241,287 350,430 109,143 213,289 312,436l68 102 -43 115 -5797 15309 -55 144 -153 10c-242,15 -490,23 -743,22 -258,-1 -510,-11 -757,-28 -286,-20 -564,-19 -825,22 -253,40 -494,117 -718,250l-441 261 85 -505 2149 -12716 16 -95 77 -57c490,-366 1007,-695 1548,-991 353,-193 716,-372 1088,-537 -176,-87 -353,-207 -511,-370 -457,-472 -511,-1028 -566,-1592zm907 1260c137,141 293,239 447,307 158,70 314,110 444,135l806 152 -762 303c-562,222 -1104,474 -1625,760 -489,267 -961,566 -1415,899l-2058 12178c148,-51 300,-87 456,-111 303,-48 615,-50 930,-28 248,17 490,26 726,27l1 0c184,1 370,-3 558,-13l5699 -15049c-71,-103 -146,-206 -226,-311 -105,-138 -216,-274 -332,-408l0 0c-984,-1127 -2170,-1848 -3303,-2313 -773,-317 -1522,-516 -2166,-642 337,322 591,635 783,932 307,476 455,912 526,1280 112,581 111,1488 511,1902z"/>
   <path class="fil2" d="M5126 21625c243,-288 508,-550 774,-813 196,-193 393,-387 581,-594l0 0c32,-36 67,-71 104,-107 13,-12 26,-24 39,-37l2025 -11983c-22,20 -44,39 -66,59l0 1c-96,86 -198,146 -308,182 -111,36 -227,47 -349,34l0 0c-30,-3 -59,-6 -87,-7 -372,-17 -693,112 -930,348 -247,244 -409,605 -455,1044 -4,47 -8,94 -10,140 -13,290 -28,580 -57,871 -29,295 -71,589 -137,879 -128,564 -383,1030 -718,1433 -329,395 -732,726 -1167,1031 -73,51 -146,102 -219,153 -51,36 -101,71 -266,186l304 7745c129,-12 252,-40 368,-87 178,-74 345,-197 501,-390l72 -88 1 0zm1108 -474c-284,280 -567,560 -812,862l-71 89 -5 0c-188,208 -394,350 -614,440 -247,102 -508,137 -783,130l-223 -7 -8 -222 -318 -8109 -5 -129 106 -75 373 -261c73,-51 146,-102 219,-153 404,-283 776,-588 1073,-945 290,-348 511,-750 620,-1233 62,-270 101,-544 128,-819 27,-279 42,-563 55,-847 2,-58 6,-115 12,-169 57,-550 269,-1012 592,-1333 332,-329 775,-508 1287,-485 39,2 78,5 116,9l1 0c54,5 104,1 150,-14 46,-15 92,-42 137,-83l1 0c92,-83 188,-166 287,-249 109,-92 205,-171 291,-240l487 -388 -104 614 -2147 12701 -14 85 -65 56c-28,25 -57,50 -85,78 -26,25 -52,52 -80,83l-1 1c-191,209 -395,411 -600,613z"/>
   <path class="fil3" d="M3314 20496c-22,80 -65,157 -106,230 -15,27 -30,53 -36,65 -72,158 -159,299 -247,441 -39,62 -78,125 -127,211 -86,150 -123,243 -107,293 17,49 102,103 263,174 63,27 115,52 168,77 107,50 215,101 323,137l-63 -1628 -68 0zm-522 -3c24,-42 70,-65 60,-76l0 0c-5,-5 -69,24 -130,41 -22,6 -44,12 -47,12l-1 0c-303,77 -587,159 -870,241 -192,56 -87,27 -239,70l0 0c-190,55 -366,65 -530,12 -171,-55 -316,-172 -434,-369 -173,-289 -321,-585 -427,-895 -108,-316 -172,-648 -174,-1004 -3,-523 142,-970 368,-1375 219,-394 511,-741 817,-1080 306,-340 640,-650 991,-942 348,-290 707,-558 1071,-817l358 -256 17 440 310 7911 11 281 -278 -35 0 -1 -1 1c-38,-5 -77,-9 -119,-16l0 0c-236,-35 -432,-127 -626,-219 -55,-26 -110,-51 -155,-71 -292,-128 -461,-265 -526,-461 -65,-197 -10,-406 146,-678 35,-61 86,-143 136,-225 80,-129 160,-258 220,-388 19,-42 35,-71 52,-101zm581 -209l-209 -5326c-234,174 -463,351 -684,535 -330,275 -647,570 -941,896 -288,319 -561,642 -756,992 -189,340 -310,711 -308,1143 2,298 57,580 150,852 94,277 228,543 384,804 55,90 111,141 171,160 67,22 152,13 254,-16l1 -1c310,-89 204,-58 237,-68 279,-81 558,-162 825,-231l-4 -5 24 0 41 -11 0 0c26,-6 33,-9 41,-11 191,-51 415,-112 607,101l167 186z"/>
   <path class="fil2" d="M7120 29462l-286 755 625 -1191c-115,144 -228,289 -339,436zm-2119 4252l1686 -4453 12 -33 20 -26c272,-360 555,-711 848,-1057 292,-345 591,-681 893,-1013l1242 -1359 -855 1630 -3413 6505 -1089 2076 -135 0 46 -304 745 -1966z"/>
   <path class="fil1" d="M4764 32694l1081 -2210 0 -15 37 -59c49,-77 86,-135 118,-184 14,-21 68,-102 119,-180l580 -818 452 -580 -610 1613 -1622 4282 -545 1441 -164 0 117 -765 135 -799 280 -1661 6 -32 16 -33z"/>
   <polygon id="XMLID_00000068666350477034526800000014106184141955932851_" class="fil4" points="4347,35745 4347,35745 4347,35745 4347,35745 "/>
  </g>
 </g>
</svg>
