<?xml version="1.0" encoding="utf-8"?>
<!-- Generator: Adobe Illustrator 26.0.2, SVG Export Plug-In . SVG Version: 6.00 Build 0)  -->
<svg version="1.1" id="Layer_1" xmlns="http://www.w3.org/2000/svg" xmlns:xlink="http://www.w3.org/1999/xlink" x="0px" y="0px"
	 viewBox="0 0 1100 740" style="enable-background:new 0 0 1100 740;" xml:space="preserve">
<style type="text/css">
	.st0{fill:#ff595e;}
	.st1{fill:#ffca3a;}
	.st2{fill:#8ac926;}
	.st3{fill:#1982c4;}
	.st4{fill:#6a4c93;}
</style>
<g id="XMLID_00000046316226447205821160000008449013051117382055_">
	
	<rect id="XMLID_00000038407725126072878900000003159224915861510818_" x="415.24" y="541.89" class="st0" width="273.01" height="33.15"/>

	<path id="XMLID_00000150093684850071750530000001605246190906812858_" class="st1" d="M673.46,497.64l-222.74,38.22H654.7
		C661.12,524.54,667.53,511.79,673.46,497.64z"/>
	<path id="XMLID_00000173131924093778642140000001208546803605821630_" class="st2" d="M674.68,494.68c0.6-1.47,1.2-2.93,1.79-4.43
		c8.93-22.73,14.74-44.39,18.49-64.1L453.31,532.66L674.68,494.68z"/>
	<path id="XMLID_00000165226955735900714600000003425739873251238843_" class="st3" d="M685.01,376.68L456.65,528.23l238.91-105.3
		c2.47-13.62,3.95-26.27,4.82-37.62C695.25,382.43,690.13,379.55,685.01,376.68z"/>
	<path id="XMLID_00000010304597847192273610000003463442986312501893_" class="st4" d="M680.67,332.75L460.01,522.74l231.87-153.87
		l0,0c2.76-2.64,5.52-5.28,8.28-7.91c-0.49-7.82-0.98-15.64-1.47-23.46c-2.43-1.23-5.63-2.58-9.54-3.54
		C686.01,333.19,683.14,332.86,680.67,332.75z"/>
	<path id="XMLID_00000131344407972719286900000014794052982908037012_" class="st0" d="M457.97,520.92L679.83,329.9
		c3.96-5.01,7.93-10.03,11.89-15.04c-2.66-9.48-5.32-18.97-7.98-28.45c-5.03,0.16-10.07,0.32-15.1,0.48L457.97,520.92z"/>
	<path id="XMLID_00000151545681056532256540000003432691279594156210_" class="st1" d="M456.3,518.72l208.76-231.9
		c3.56-5.22,7.13-10.44,10.69-15.65c-5.49-8.86-10.99-17.72-16.48-26.57c-4.8,1.23-9.6,2.46-14.39,3.68L456.3,518.72z"/>
	<path id="XMLID_00000029761398214892679650000013244474884974149810_" class="st2" d="M538.21,356.75
		c6.66-5.01,11.28-11.09,14.37-16.24c-0.52,16.97-5.29,32.57-14.06,47.05c-11.78,19.45-27.94,35.21-43.34,51.59
		c-0.16,0.17-0.32,0.35-0.49,0.52l-40.79,77.72l190.21-272.79c1.7-4.11,3.41-8.21,5.11-12.32c-9.12-7.72-18.23-15.43-27.35-23.15
		c-3.56,2.84-7.13,5.68-10.69,8.53L538.21,356.75z"/>
	<path id="XMLID_00000043459386463249542650000006157996887440653455_" class="st3" d="M518.36,365.74
		c2.65-0.54,7.3-1.78,12.57-4.45c0.89-0.45,1.74-0.93,2.58-1.42l75.34-143.57c1.2-4.38,2.39-8.77,3.59-13.15
		c-10.14-4.85-20.27-9.7-30.41-14.55c-3.93,4.75-7.87,9.51-11.8,14.26l-62.25,164.4C511.46,366.93,514.93,366.44,518.36,365.74z"/>
	<path id="XMLID_00000122713533486969337680000002545968236200162987_" class="st4" d="M511.07,192.53
		c1.42,7.37,0.3,15.29,6.02,21.2c3.35,3.46,7.64,4.77,10.66,5.34c-11.97,4.75-23.09,10.73-33.23,18.29L472,370.62
		c5.25-3.11,11.3-3.63,17.6-3.19c5.16,0.36,10.3,0.39,15.4,0.06l60.75-160.44c-1.99-2.97-4.22-5.93-6.75-8.84
		c-21.21-24.3-51.05-31.06-67.67-33.25C505.26,175.49,509.68,185.33,511.07,192.53z"/>
	<path id="XMLID_00000121992694313299921460000011717306011696794025_" class="st0" d="M452.02,390.38
		c4.5-5.56,10.05-10.26,14.88-15.57c0.63-0.7,1.29-1.32,1.96-1.9l22.5-133.11c-2.02,1.61-4.01,3.28-5.95,5.02
		c-1.48,1.33-3.1,1.84-4.95,1.64c-10.29-1.07-17.76,6.69-18.29,18.36c-0.27,6.01-0.63,12.02-1.97,17.9
		c-2.49,10.97-9.96,18.17-18.75,24.32c-2.07,1.45-4.14,2.89-6.2,4.34l3.33,84.98C443.68,396.5,448.19,395.1,452.02,390.38z"/>
	<path id="XMLID_00000090998217327252578710000004837885260432583563_" class="st1" d="M428.87,373.55
		c1.37,1.52-0.13,3.18-0.76,4.56c-1.06,2.31-2.56,4.41-3.83,6.63c-2.53,4.42-1.93,6.33,2.81,8.41c2.46,1.08,4.82,2.46,7.56,2.86
		c0.4,0.06,0.8,0.11,1.2,0.16l-3.25-82.91c-7.57,5.41-14.9,11.1-21.2,18.08c-6.22,6.89-11.83,14.05-11.78,24.05
		c0.04,6.86,2.49,12.86,5.95,18.63c1.8,3.01,4.21,3.51,7.28,2.62c3.89-1.12,7.77-2.29,11.7-3.28
		C425.96,373,427.77,372.33,428.87,373.55z"/>

	<path id="XMLID_00000103954938283648697220000007815447527980160906_" class="st3" d="M469.54,468.79l-17.67,46.66l35.77-68.17
		C481.31,454.21,475.19,461.3,469.54,468.79z"/>
	<path id="XMLID_00000080198539405377009890000015267037656894139546_" class="st4" d="M460.88,481.28l-11.59,23.7l-2.94,17.4
		l16.99-44.87C462.51,478.76,461.68,480.01,460.88,481.28z"/>



	<rect id="XMLID_00000068666350477034526800000014106184141955932851_" x="442.69" y="535.86" width="0" height="0"/>
	
	
	
	
	

	
	
</g>
</svg>
