<svg xmlns="http://www.w3.org/2000/svg" width="215.29" height="216" viewBox="0 0 215.29 216">
    <defs>
        <style>.cls-1{fill:white;}</style>
    </defs>
    <title>25cutfile</title>
    <g id="Layer_2" data-name="Layer 2">
        <g id="Layer_1-2" data-name="Layer 1">
            <path class="cls-1"
                  d="M205,103.49l10.3-4.26a108,108,0,0,0-1.87-13.15L202.31,84.9a4.88,4.88,0,0,1-2.54-8.65l8.71-7A107.45,107.45,0,0,0,203,57.18l-11,2a4.88,4.88,0,0,1-4.88-7.59l6.37-9.15a108.59,108.59,0,0,0-8.71-10l-10,5A4.88,4.88,0,0,1,168,31.48l3.53-10.57a108.08,108.08,0,0,0-11.17-7.19l-8.16,7.61a4.88,4.88,0,0,1-8.2-3.75l.41-11.17a107.17,107.17,0,0,0-12.74-3.73L126,12.29A4.88,4.88,0,0,1,117,11L114.29.21c-2.2-.13-4.41-.21-6.64-.21S103.2.08,101,.21L98.26,11a4.88,4.88,0,0,1-8.93,1.28L83.64,2.68A107.17,107.17,0,0,0,70.9,6.42l.41,11.17a4.88,4.88,0,0,1-8.21,3.75l-8.16-7.61a108.09,108.09,0,0,0-11.17,7.19l3.53,10.57a4.88,4.88,0,0,1-6.82,5.91l-10-5a108.57,108.57,0,0,0-8.71,10l6.37,9.15a4.88,4.88,0,0,1-4.88,7.59l-11-2A107.44,107.44,0,0,0,6.81,69.25l8.7,7A4.88,4.88,0,0,1,13,84.9L1.87,86.09A107.93,107.93,0,0,0,0,99.23l10.3,4.26a4.88,4.88,0,0,1,0,9L0,116.77a108,108,0,0,0,1.87,13.15L13,131.1a4.88,4.88,0,0,1,2.54,8.65l-8.7,7a107.44,107.44,0,0,0,5.52,12.07l11-2a4.88,4.88,0,0,1,4.88,7.59l-6.37,9.15a108.59,108.59,0,0,0,8.71,10l10-5a4.88,4.88,0,0,1,6.82,5.91l-3.53,10.57a108.1,108.1,0,0,0,11.17,7.19l8.16-7.61a4.88,4.88,0,0,1,8.21,3.75l-.41,11.17a107.16,107.16,0,0,0,12.74,3.73l5.69-9.61A4.88,4.88,0,0,1,98.26,205l2.74,10.8c2.2.13,4.41.21,6.64.21s4.45-.08,6.64-.21L117,205a4.88,4.88,0,0,1,8.93-1.28l5.69,9.61a107.15,107.15,0,0,0,12.74-3.73L144,198.42a4.88,4.88,0,0,1,8.2-3.75l8.16,7.61a108.09,108.09,0,0,0,11.17-7.19L168,184.52a4.88,4.88,0,0,1,6.82-5.91l10,5a108.6,108.6,0,0,0,8.71-10l-6.37-9.15a4.88,4.88,0,0,1,4.88-7.59l11,2a107.45,107.45,0,0,0,5.52-12.07l-8.71-7a4.88,4.88,0,0,1,2.54-8.65l11.11-1.18a107.94,107.94,0,0,0,1.87-13.15L205,112.51A4.88,4.88,0,0,1,205,103.49ZM54.54,150.29a8.17,8.17,0,1,1,8.17-8.17A8.17,8.17,0,0,1,54.54,150.29Zm-3.77-30.35A11.94,11.94,0,1,1,62.71,108,11.94,11.94,0,0,1,50.77,119.94Zm3.77-37.88a8.17,8.17,0,1,1,8.17-8.17A8.17,8.17,0,0,1,54.54,82.06Zm53.11-42.86A11.94,11.94,0,1,1,95.71,51.13,11.94,11.94,0,0,1,107.64,39.19ZM73.53,46.72a8.17,8.17,0,1,1-8.17,8.17A8.17,8.17,0,0,1,73.53,46.72Zm0,122.56a8.17,8.17,0,1,1,8.17-8.17A8.17,8.17,0,0,1,73.53,169.28Zm34.11,7.53a11.94,11.94,0,1,1,11.94-11.94A11.94,11.94,0,0,1,107.64,176.81Zm0-42.86A25.94,25.94,0,1,1,133.59,108,25.94,25.94,0,0,1,107.64,133.94Zm34.11,35.33a8.17,8.17,0,1,1,8.17-8.17A8.17,8.17,0,0,1,141.76,169.28Zm0-106.21a8.17,8.17,0,1,1,8.17-8.17A8.17,8.17,0,0,1,141.76,63.06Zm19,2.65a8.17,8.17,0,1,1-8.17,8.17A8.17,8.17,0,0,1,160.75,65.71Zm0,84.57a8.17,8.17,0,1,1,8.17-8.17A8.17,8.17,0,0,1,160.75,150.29Zm3.77-30.35A11.94,11.94,0,1,1,176.45,108,11.94,11.94,0,0,1,164.52,119.94Z"/>
        </g>
    </g>
</svg>