<svg id="Layer_1" data-name="Layer 1" xmlns="http://www.w3.org/2000/svg" viewBox="0 0 742.06 658.64">
    <defs>
        <style>.cls-1{fill:white}</style>
        <style>.cls-2{fill:#e76f51}</style> <!-- red -->
        <style>.cls-3{fill:#e9c46a;}</style> <!-- yellow -->
        <style>.cls-4{fill:#2a9d8f}</style>  <!-- green -->
        <style>.cls-5{fill:#f4a261}</style>  <!-- orange -->
        <style>.cls-6{fill:#264653}</style>  <!-- blue -->
    </defs>
    <title>All_Gears_cutfile</title>
    <path class="cls-5"
          d="M591.15,378.41a9.14,9.14,0,0,0,9.14-9.14v-30a9.14,9.14,0,0,0-9.14-9.14H575.61a4.93,4.93,0,0,1-4.77-3.67,109,109,0,0,0-11.26-27.11,4.93,4.93,0,0,1,.77-6l11-11a9.14,9.14,0,0,0,0-12.93l-21.23-21.22a9.13,9.13,0,0,0-12.92,0l-11,11a4.93,4.93,0,0,1-6,.77,108.39,108.39,0,0,0-27.1-11.26,4.92,4.92,0,0,1-3.67-4.77V228.4a9.14,9.14,0,0,0-9.14-9.14h-30a9.14,9.14,0,0,0-9.14,9.14v15.54a4.93,4.93,0,0,1-3.68,4.77A108.55,108.55,0,0,0,410.36,260a4.93,4.93,0,0,1-6-.77l-11-11a9.14,9.14,0,0,0-12.93,0l-21.22,21.22a9.14,9.14,0,0,0,0,12.93l11,11a4.93,4.93,0,0,1,.77,6,108.09,108.09,0,0,0-11.26,27.11,4.93,4.93,0,0,1-4.78,3.67H339.43a9.14,9.14,0,0,0-9.14,9.14v30a9.14,9.14,0,0,0,9.14,9.14H355a5,5,0,0,1,4.78,3.67A108.09,108.09,0,0,0,371,409.19a5,5,0,0,1-.77,6l-11,11a9.14,9.14,0,0,0,0,12.93l21.22,21.22a9.14,9.14,0,0,0,12.93,0l11-11a4.93,4.93,0,0,1,6-.77,108.18,108.18,0,0,0,27.1,11.26,4.93,4.93,0,0,1,3.68,4.77v15.54a9.14,9.14,0,0,0,9.14,9.14h30a9.14,9.14,0,0,0,9.14-9.14V464.58a4.92,4.92,0,0,1,3.67-4.77,108,108,0,0,0,27.1-11.26,5,5,0,0,1,6,.77l11,11a9.13,9.13,0,0,0,12.92,0l21.23-21.22a9.14,9.14,0,0,0,0-12.93l-11-11a4.92,4.92,0,0,1-.77-6,108.84,108.84,0,0,0,11.26-27.11,4.93,4.93,0,0,1,4.77-3.67ZM465.29,419.78a65.52,65.52,0,1,1,65.52-65.52A65.59,65.59,0,0,1,465.29,419.78Z"
          transform="translate(-64.08 -68.29)"/>
    <path class="cls-1"
          d="M622,252.74a.68.68,0,0,0-.38-.83l-3.75-1.62a.68.68,0,0,1-.41-.65c0-.2,0-.4,0-.6s0-.39,0-.59a.68.68,0,0,1,.41-.65l3.75-1.62a.68.68,0,0,0,.38-.83l-1.43-4.41a.69.69,0,0,0-.8-.45l-4,.89a.66.66,0,0,1-.71-.28c-.22-.33-.45-.65-.7-1a.66.66,0,0,1-.05-.77l2.08-3.51a.68.68,0,0,0-.18-.9l-3.75-2.73a.68.68,0,0,0-.91.11l-2.7,3.06a.67.67,0,0,1-.74.19c-.37-.14-.75-.26-1.14-.37a.7.7,0,0,1-.49-.59l-.37-4.06a.69.69,0,0,0-.68-.62h-4.63a.68.68,0,0,0-.68.62l-.38,4.06a.69.69,0,0,1-.49.59c-.39.11-.77.23-1.14.37a.67.67,0,0,1-.74-.19l-2.7-3.06a.68.68,0,0,0-.91-.11L590,235a.68.68,0,0,0-.18.9l2.09,3.51a.68.68,0,0,1-.06.77c-.24.31-.48.63-.7,1a.66.66,0,0,1-.71.28l-4-.89a.67.67,0,0,0-.79.45l-1.44,4.41a.69.69,0,0,0,.38.83l3.75,1.62a.68.68,0,0,1,.41.65c0,.2,0,.4,0,.59s0,.4,0,.6a.68.68,0,0,1-.41.65l-3.75,1.62a.69.69,0,0,0-.38.83l1.44,4.41a.67.67,0,0,0,.79.45l4-.9a.68.68,0,0,1,.71.29c.22.33.46.65.7,1a.66.66,0,0,1,.06.76l-2.09,3.52a.68.68,0,0,0,.18.9l3.75,2.72a.67.67,0,0,0,.91-.1l2.7-3.07a.67.67,0,0,1,.74-.18c.37.14.75.26,1.14.37a.67.67,0,0,1,.49.59l.38,4.06a.68.68,0,0,0,.68.62h4.63a.69.69,0,0,0,.68-.62l.37-4.06a.69.69,0,0,1,.49-.59c.39-.11.77-.23,1.14-.37a.66.66,0,0,1,.74.18l2.7,3.07a.67.67,0,0,0,.91.1l3.75-2.72a.68.68,0,0,0,.18-.9l-2.08-3.52a.65.65,0,0,1,.05-.76c.25-.31.48-.63.7-1a.68.68,0,0,1,.71-.29l4,.9a.69.69,0,0,0,.8-.45Zm-18.88,6.41A10.11,10.11,0,1,1,613.19,249,10.12,10.12,0,0,1,603.09,259.15Z"
          transform="translate(-64.08 -68.29)"/>
    <path class="cls-1"
          d="M693.37,191.6a33.82,33.82,0,0,0,.55-4.76l-8.79-2.06a24.84,24.84,0,0,0-.35-3.36l8.27-3.89a35,35,0,0,0-1.42-4.53l-9,1.72a24.89,24.89,0,0,0-1.69-2.92l6.06-7a33.79,33.79,0,0,0-3.12-3.53l-7.65,5.31a25.43,25.43,0,0,0-2.74-2l2.72-9a34.19,34.19,0,0,0-4.27-1.93L667,161.71a26.14,26.14,0,0,0-3.3-.7l-1.19-9.34q-1.15-.09-2.34-.09t-2.34.09L656.69,161a25.42,25.42,0,0,0-3.3.7l-4.88-8.05a34.19,34.19,0,0,0-4.27,1.93l2.71,9a25.31,25.31,0,0,0-2.73,2l-7.65-5.31a33.79,33.79,0,0,0-3.12,3.53l6,7a26.39,26.39,0,0,0-1.69,2.92l-9-1.72a35,35,0,0,0-1.41,4.53l8.26,3.89a24.84,24.84,0,0,0-.35,3.36l-8.79,2.06a32.41,32.41,0,0,0,.56,4.76l9,.19a23.61,23.61,0,0,0,1.05,3.21L630,200.37a33.31,33.31,0,0,0,2.46,4.15l8.13-3.42a25.61,25.61,0,0,0,2.26,2.51l-4.21,7.66a33.28,33.28,0,0,0,3.94,2.83l6-6.35a24.31,24.31,0,0,0,3.08,1.38l-.72,8.63a32.83,32.83,0,0,0,4.77,1l2.85-8.17c.55,0,1.12.06,1.68.06s1.13,0,1.69-.06l2.85,8.17a32.83,32.83,0,0,0,4.77-1l-.73-8.63a23.82,23.82,0,0,0,3.09-1.38l6,6.35a32.59,32.59,0,0,0,3.95-2.83l-4.21-7.66a25.51,25.51,0,0,0,2.25-2.51l8.14,3.42a34.51,34.51,0,0,0,2.45-4.15L683.36,195a25.09,25.09,0,0,0,1-3.21Zm-20.23-19.2a18.19,18.19,0,0,1,4.73,8.19l-10.34,1.83a8.1,8.1,0,0,0-1.14-2Zm-11.33-5.28a18.18,18.18,0,0,1,8.89,3.23l-6.75,8a7.83,7.83,0,0,0-2.14-.78Zm-3.19,0v10.49a8,8,0,0,0-2.15.78l-6.74-8A18.18,18.18,0,0,1,658.62,167.12Zm-11.33,5.28,6.75,8a7.79,7.79,0,0,0-1.14,2l-10.35-1.83A18.21,18.21,0,0,1,647.29,172.4Zm-5.36,12.92c0-.53,0-1.06.07-1.59l10.35,1.82a7.92,7.92,0,0,0,.39,2.25l-9.1,5.25A18.3,18.3,0,0,1,641.93,185.32Zm3.31,10.49,9.1-5.25a7.89,7.89,0,0,0,1.74,1.46l-3.59,9.87A18.31,18.31,0,0,1,645.24,195.81Zm15,7.8a18.05,18.05,0,0,1-4.73-.63l3.59-9.87a8.75,8.75,0,0,0,1.14.09,8.49,8.49,0,0,0,1.14-.09L665,203A18.07,18.07,0,0,1,660.21,203.61Zm7.73-1.72-3.6-9.87a8,8,0,0,0,1.75-1.46l9.1,5.25A18.38,18.38,0,0,1,667.94,201.89Zm8.84-8.84-9.09-5.25a8.29,8.29,0,0,0,.39-2.25l10.34-1.82c.05.53.07,1.06.07,1.59A18.15,18.15,0,0,1,676.78,193.05Z"
          transform="translate(-64.08 -68.29)"/>
    <path class="cls-1"
          d="M596.81,679.65l1.13-2.91-8.57-6.55c.1-.41.18-.82.27-1.23l10.5-2.46.17-3.11-10.17-3.59c0-.42-.08-.83-.14-1.25l9.24-5.58-.8-3-10.81-.27c-.16-.38-.32-.76-.5-1.14l7.07-8.17-1.7-2.62-10.34,3.08c-.27-.32-.55-.63-.83-.94l4.18-9.94-2.42-2-8.88,6.12-1.08-.63.9-10.74-2.9-1.13-6.56,8.57-1.23-.27-2.45-10.5-3.12-.17-3.58,10.17c-.42,0-.84.08-1.25.14l-5.59-9.24-3,.8-.27,10.81c-.38.16-.76.32-1.13.5l-8.18-7.07-2.62,1.7,3.08,10.34c-.32.27-.63.55-.94.83L524.34,634l-2,2.42,6.12,8.88c-.22.35-.43.72-.63,1.08l-10.75-.9-1.12,2.9,8.56,6.56c-.1.41-.18.82-.26,1.23l-10.5,2.45-.17,3.12,10.17,3.58c0,.42.08.84.13,1.25l-9.23,5.59.8,3,10.8.27c.16.38.33.76.5,1.13l-7.06,8.18,1.69,2.62,10.34-3.08c.27.32.55.63.84.94l-4.19,9.94,2.42,2,8.88-6.12c.36.22.72.43,1.09.63l-.91,10.75,2.91,1.12,6.55-8.56c.41.1.82.18,1.23.26l2.46,10.5,3.11.17,3.59-10.17c.42,0,.83-.08,1.25-.13l5.58,9.23,3-.8.27-10.8,1.14-.5,8.17,7.06,2.62-1.69-3.08-10.34c.32-.27.63-.55.94-.84l9.94,4.19,2-2.42-6.12-8.88.63-1.09Zm-30.58-35a3.78,3.78,0,0,1,2.52-2.3,3.85,3.85,0,0,1,3.36.65,24.83,24.83,0,0,1,9.57,21.63,3.8,3.8,0,0,1-5.17,3.24l-13.13-5.07a3.82,3.82,0,0,1-2.11-2l0-.1a3.88,3.88,0,0,1-.07-2.92Zm-18.52,36a3.81,3.81,0,0,1-5.88,1.65,24.87,24.87,0,0,1-9.58-21.63,3.82,3.82,0,0,1,5.18-3.25l13.12,5.07a3.8,3.8,0,0,1,2.11,2l.05.1a3.81,3.81,0,0,1,.07,2.91Zm9.43-24.4a3.83,3.83,0,0,1-2,2.11l-.1.05a3.86,3.86,0,0,1-2.91.07L539,653.32a3.81,3.81,0,0,1-1.65-5.88A24.83,24.83,0,0,1,559,637.87a3.81,3.81,0,0,1,3.25,5.17Zm-.86,8.18a1.9,1.9,0,1,1,2.46-1.08A1.89,1.89,0,0,1,556.28,664.35Zm20.32,13.37A24.87,24.87,0,0,1,555,687.3a3.81,3.81,0,0,1-3.24-5.18L556.8,669a3.78,3.78,0,0,1,2-2.11l.1,0a3.84,3.84,0,0,1,2.92-.07L575,671.84a3.81,3.81,0,0,1,1.65,5.88Z"
          transform="translate(-64.08 -68.29)"/>
    <path class="cls-2"
          d="M603.07,554.59a9.5,9.5,0,0,1,7.2-7.69l6.49-1.53a1.43,1.43,0,0,0,1.08-1.64l-2.68-15.21a1.43,1.43,0,0,0-1.58-1.17l-6.62.79a9.49,9.49,0,0,1-9.38-4.75l-.44-.76a9.49,9.49,0,0,1,.57-10.51l4-5.34a1.43,1.43,0,0,0-.22-2l-11.83-9.92a1.43,1.43,0,0,0-2,.12l-4.55,4.85a9.5,9.5,0,0,1-10.25,2.39c-.28-.11-.55-.21-.83-.3a9.49,9.49,0,0,1-6.31-8.42l-.37-6.65a1.44,1.44,0,0,0-1.44-1.35H548.49a1.43,1.43,0,0,0-1.43,1.35l-.37,6.65a9.49,9.49,0,0,1-6.31,8.42c-.28.09-.56.19-.83.3a9.5,9.5,0,0,1-10.25-2.39L524.75,495a1.43,1.43,0,0,0-2-.12L511,504.82a1.45,1.45,0,0,0-.23,2l4,5.34a9.49,9.49,0,0,1,.57,10.51l-.44.76a9.49,9.49,0,0,1-9.38,4.75l-6.62-.79a1.42,1.42,0,0,0-1.58,1.17l-2.68,15.21a1.42,1.42,0,0,0,1.08,1.64l6.49,1.53a9.5,9.5,0,0,1,7.2,7.69c0,.28.09.57.15.86a9.49,9.49,0,0,1-4.14,9.66l-5.58,3.65a1.44,1.44,0,0,0-.45,1.92l7.72,13.37a1.43,1.43,0,0,0,1.89.56l5.95-3a9.49,9.49,0,0,1,10.44,1.25l.67.56a9.5,9.5,0,0,1,3.06,10.07l-1.93,6.39a1.43,1.43,0,0,0,.88,1.76l14.51,5.28a1.43,1.43,0,0,0,1.81-.78L547,600a9.52,9.52,0,0,1,8.82-5.76h.87a9.49,9.49,0,0,1,8.81,5.76l2.63,6.12a1.42,1.42,0,0,0,1.8.78l14.52-5.28a1.43,1.43,0,0,0,.88-1.76l-1.93-6.39a9.5,9.5,0,0,1,3-10.07c.23-.18.45-.37.67-.56a9.5,9.5,0,0,1,10.45-1.25l6,3a1.43,1.43,0,0,0,1.89-.56l7.72-13.37a1.44,1.44,0,0,0-.46-1.92l-5.57-3.65a9.49,9.49,0,0,1-4.14-9.66Zm-46.86,4.07a11.91,11.91,0,1,1,11.91-11.9A11.9,11.9,0,0,1,556.21,558.66Z"
          transform="translate(-64.08 -68.29)"/>
    <path class="cls-3"
          d="M750.83,287.22a2.09,2.09,0,0,0-2.31-1.68l-9.29,1.12a6.59,6.59,0,0,1-7-4.24l-.28-.72a6.59,6.59,0,0,1,2.41-7.82l7.7-5.31a2.1,2.1,0,0,0,.61-2.79,68.15,68.15,0,0,0-5.74-8.31,2.09,2.09,0,0,0-2.83-.41l-7.7,5.31a6.58,6.58,0,0,1-8.15-.51c-.19-.17-.38-.34-.58-.5a6.61,6.61,0,0,1-1.5-8.05l4.35-8.29a2.11,2.11,0,0,0-.74-2.76,69.76,69.76,0,0,0-8.94-4.7,2.11,2.11,0,0,0-2.7.95l-4.35,8.29a6.62,6.62,0,0,1-7.46,3.34l-.74-.19a6.59,6.59,0,0,1-5.08-6.42v-9.35a2.1,2.1,0,0,0-1.94-2.1c-1.67-.12-3.35-.18-5.05-.18s-3.38.06-5,.18a2.11,2.11,0,0,0-2,2.1v9.35a6.59,6.59,0,0,1-5.07,6.42l-.75.19a6.6,6.6,0,0,1-7.45-3.34l-4.35-8.29a2.1,2.1,0,0,0-2.7-.95,69.1,69.1,0,0,0-8.94,4.7,2.11,2.11,0,0,0-.75,2.76l4.36,8.29a6.6,6.6,0,0,1-1.51,8.05h0a7.7,7.7,0,0,1-9.43.53l-7-4.83a2.09,2.09,0,0,0-2.83.41,69.25,69.25,0,0,0-5.75,8.3,2.11,2.11,0,0,0,.62,2.8l7.7,5.31a6.59,6.59,0,0,1,2.4,7.82l-.27.72a6.59,6.59,0,0,1-7,4.24l-9.29-1.12a2.09,2.09,0,0,0-2.31,1.68,68.72,68.72,0,0,0-1.21,10,2.11,2.11,0,0,0,1.85,2.18l9.29,1.12a6.6,6.6,0,0,1,5.76,5.81c0,.25.06.5.1.76a6.6,6.6,0,0,1-4.21,7l-8.77,3.32a2.1,2.1,0,0,0-1.27,2.56,67.9,67.9,0,0,0,3.59,9.45,2.09,2.09,0,0,0,2.64,1.08l8.76-3.33a6.6,6.6,0,0,1,7.79,2.45l.44.63a6.59,6.59,0,0,1-.46,8.17l-6.2,7a2.1,2.1,0,0,0,.06,2.86A69.75,69.75,0,0,0,642,355a2.08,2.08,0,0,0,2.84-.28l6.21-7a6.61,6.61,0,0,1,8-1.45l.68.36a6.59,6.59,0,0,1,3.38,7.45l-2.24,9.09a2.1,2.1,0,0,0,1.38,2.5,69.69,69.69,0,0,0,9.82,2.41,2.09,2.09,0,0,0,2.38-1.57l2.24-9.09a6.61,6.61,0,0,1,6.46-5h.76a6.59,6.59,0,0,1,6.45,5l2.24,9.09a2.12,2.12,0,0,0,2.39,1.57,69.22,69.22,0,0,0,9.81-2.41,2.1,2.1,0,0,0,1.39-2.5L704,354.09a6.6,6.6,0,0,1,3.38-7.45l.68-.36a6.59,6.59,0,0,1,8,1.45l6.2,7a2.1,2.1,0,0,0,2.85.28,69.65,69.65,0,0,0,7.55-6.7,2.1,2.1,0,0,0,.07-2.86l-6.2-7a6.59,6.59,0,0,1-.46-8.17l.44-.63a6.59,6.59,0,0,1,7.79-2.45l8.75,3.33a2.11,2.11,0,0,0,2.65-1.08,67,67,0,0,0,3.58-9.44,2.08,2.08,0,0,0-1.26-2.56l-8.77-3.33a6.6,6.6,0,0,1-4.21-7l.09-.76a6.61,6.61,0,0,1,5.77-5.81l9.29-1.12a2.11,2.11,0,0,0,1.84-2.18A68.72,68.72,0,0,0,750.83,287.22Zm-67.29,29.36a16.11,16.11,0,1,1,16.1-16.11A16.11,16.11,0,0,1,683.54,316.58Z"
          transform="translate(-64.08 -68.29)"/>
    <path class="cls-4"
          d="M674.27,428.08a.72.72,0,0,0,.13-1.27,10.81,10.81,0,0,1-1.86-16.56.71.71,0,0,0-.4-1.2,10.81,10.81,0,0,1-8.42-14.39.71.71,0,0,0-.85-.93A10.81,10.81,0,0,1,649.31,384a.7.7,0,0,0-1.16-.49,10.82,10.82,0,0,1-16.33-3.36.71.71,0,0,0-1.27,0,10.81,10.81,0,0,1-16.28,3.57.72.72,0,0,0-1.16.52,10.81,10.81,0,0,1-13.43,9.89.7.7,0,0,0-.83.94,10.83,10.83,0,0,1-8.23,14.51.71.71,0,0,0-.39,1.21,10.8,10.8,0,0,1-1.63,16.58.71.71,0,0,0,.14,1.26A10.82,10.82,0,0,1,594,444.48a.71.71,0,0,0,.64,1.09,10.81,10.81,0,0,1,11.25,12.32.7.7,0,0,0,1,.73,10.81,10.81,0,0,1,15.28,6.67.71.71,0,0,0,1.24.26,10.82,10.82,0,0,1,16.67-.12.71.71,0,0,0,1.24-.27,10.81,10.81,0,0,1,15.19-6.87.72.72,0,0,0,1-.75,10.81,10.81,0,0,1,11.08-12.47.71.71,0,0,0,.62-1.09,10.81,10.81,0,0,1,5-15.9Zm-39.51-32.9a.8.8,0,0,1,.27-.6.83.83,0,0,1,.64-.19,28.58,28.58,0,0,1,13,5.38.79.79,0,0,1,.09,1.2l-13.22,13.22c-.24-.12-.5-.22-.75-.32Zm-7.42-.79a.8.8,0,0,1,.63.19.78.78,0,0,1,.28.6v18.69c-.26.1-.51.2-.76.32L614.28,401a.79.79,0,0,1-.23-.62.77.77,0,0,1,.32-.58A28.53,28.53,0,0,1,627.34,394.39Zm-18.86,11.27a.78.78,0,0,1,.58-.32.79.79,0,0,1,.62.23l13.21,13.22c-.11.24-.22.5-.31.75H603.89a.8.8,0,0,1-.6-.27.79.79,0,0,1-.19-.64A28.58,28.58,0,0,1,608.48,405.66Zm1.2,34.36a.79.79,0,0,1-.62.23.78.78,0,0,1-.58-.32,28.53,28.53,0,0,1-5.38-13,.79.79,0,0,1,.19-.64.8.8,0,0,1,.6-.27h18.69c.09.26.2.51.31.76Zm18.57,10.39a.78.78,0,0,1-.28.6.76.76,0,0,1-.63.19,28.53,28.53,0,0,1-13-5.38.78.78,0,0,1-.32-.58.79.79,0,0,1,.23-.62l13.21-13.21.76.31Zm3.25-23.09A4.53,4.53,0,1,1,636,422.8,4.52,4.52,0,0,1,631.5,427.32Zm4.17,23.88A.83.83,0,0,1,635,451a.8.8,0,0,1-.27-.6V431.72c.25-.1.51-.2.75-.31l13.22,13.21a.79.79,0,0,1,.23.62.78.78,0,0,1-.32.58A28.58,28.58,0,0,1,635.67,451.2Zm18.86-11.27a.79.79,0,0,1-1.2.09l-13.22-13.21c.12-.25.22-.5.32-.76h18.69a.8.8,0,0,1,.6.27.83.83,0,0,1,.19.64A28.53,28.53,0,0,1,654.53,439.93Zm-14.1-20.39c-.1-.25-.2-.51-.32-.75l13.22-13.22a.79.79,0,0,1,1.2.09,28.58,28.58,0,0,1,5.38,13,.83.83,0,0,1-.19.64.8.8,0,0,1-.6.27Z"
          transform="translate(-64.08 -68.29)"/>
    <path class="cls-1"
          d="M166.2,581a29.52,29.52,0,0,0-.89-3.88l5.4-5.61L159,556.79l-6.67,4a28.74,28.74,0,0,0-3.58-1.72l-1-7.73H129l-1,7.73a28.74,28.74,0,0,0-3.58,1.72l-6.68-4L106,571.47l5.4,5.61a26.63,26.63,0,0,0-.89,3.88l-7.3,2.71L107.36,602l7.76-.72a27.38,27.38,0,0,0,2.48,3.1l-2.44,7.41,16.92,8.14,4.27-6.52c.66.05,1.32.08,2,.08s1.33,0,2-.08l4.28,6.52,16.92-8.14-2.44-7.41a28.54,28.54,0,0,0,2.48-3.1l7.76.72,4.18-18.31Zm-27.86,13.58a9.26,9.26,0,1,1,9.25-9.26A9.27,9.27,0,0,1,138.34,594.54Z"
          transform="translate(-64.08 -68.29)"/>
    <path class="cls-1"
          d="M752.55,665.73,745,659.39a6.5,6.5,0,0,1-2.21-5.9,60,60,0,0,0,.32-13.89,6.46,6.46,0,0,1,2.48-5.74l7.83-6a6.42,6.42,0,0,0,1.94-7.75l-5.8-12.8a6.43,6.43,0,0,0-7.12-3.64l-9.69,2a6.44,6.44,0,0,1-6-1.92,60,60,0,0,0-10.67-8.93,6.42,6.42,0,0,1-3-5.49l.2-9.9a6.41,6.41,0,0,0-4.85-6.35l-13.62-3.44a6.43,6.43,0,0,0-7.29,3.29l-4.52,8.8a6.43,6.43,0,0,1-5.21,3.44,60,60,0,0,0-13.62,2.79,6.44,6.44,0,0,1-6.15-1.14l-7.6-6.31a6.42,6.42,0,0,0-8-.17l-11.19,8.5a6.43,6.43,0,0,0-2,7.75l4,9a6.43,6.43,0,0,1-.55,6.22,60.06,60.06,0,0,0-6.3,12.38,6.5,6.5,0,0,1-4.75,4.15l-9.66,2a6.42,6.42,0,0,0-5.11,6.14l-.32,14.05a6.41,6.41,0,0,0,4.82,6.36l9.56,2.45a6.44,6.44,0,0,1,4.53,4.29,60.32,60.32,0,0,0,5.77,12.69,6.45,6.45,0,0,1,.26,6.24l-4.47,8.83a6.41,6.41,0,0,0,1.61,7.82l10.79,9a6.42,6.42,0,0,0,8,.2l7.83-5.92a6.43,6.43,0,0,1,6.17-.92,61.16,61.16,0,0,0,6.72,2.13,59.75,59.75,0,0,0,6.92,1.31,6.46,6.46,0,0,1,5,3.74l4.09,8.93a6.41,6.41,0,0,0,7.12,3.62l13.77-2.81a6.41,6.41,0,0,0,5.13-6.13l.26-9.88a6.44,6.44,0,0,1,3.19-5.37,61,61,0,0,0,11.1-8.43,6.43,6.43,0,0,1,6-1.63l9.58,2.39a6.42,6.42,0,0,0,7.27-3.32l6.39-12.52A6.43,6.43,0,0,0,752.55,665.73ZM673.1,684.66a40.7,40.7,0,1,1,49.43-29.5A40.69,40.69,0,0,1,673.1,684.66Z"
          transform="translate(-64.08 -68.29)"/>
    <path class="cls-2"
          d="M804.65,449.1l-10.8-3.51a2.13,2.13,0,0,1-1.47-2.2c.08-1.09.13-2.19.13-3.3s0-2.21-.13-3.3a2.13,2.13,0,0,1,1.47-2.2l10.8-3.51a2.15,2.15,0,0,0,1.38-2.71l-3.91-12.06a2.16,2.16,0,0,0-2.72-1.38l-10.79,3.5a2.12,2.12,0,0,1-2.48-.9,43.94,43.94,0,0,0-3.9-5.36,2.13,2.13,0,0,1-.09-2.64l6.67-9.19a2.14,2.14,0,0,0-.47-3l-10.27-7.46a2.16,2.16,0,0,0-3,.48l-6.67,9.18a2.13,2.13,0,0,1-2.54.73,42.28,42.28,0,0,0-6.31-2,2.14,2.14,0,0,1-1.62-2.09V384.79a2.15,2.15,0,0,0-2.15-2.15H743.1a2.16,2.16,0,0,0-2.16,2.15v11.34a2.13,2.13,0,0,1-1.62,2.09,42.28,42.28,0,0,0-6.31,2,2.13,2.13,0,0,1-2.54-.73l-6.67-9.18a2.16,2.16,0,0,0-3-.48l-10.26,7.46a2.15,2.15,0,0,0-.48,3l6.68,9.19a2.16,2.16,0,0,1-.09,2.64,41.92,41.92,0,0,0-3.9,5.36,2.13,2.13,0,0,1-2.48.9l-10.8-3.5a2.14,2.14,0,0,0-2.71,1.38l-3.92,12.06a2.15,2.15,0,0,0,1.38,2.71l10.8,3.51a2.15,2.15,0,0,1,1.48,2.2c-.09,1.09-.14,2.19-.14,3.3s0,2.21.14,3.3a2.15,2.15,0,0,1-1.48,2.2l-10.8,3.51a2.15,2.15,0,0,0-1.38,2.71l3.92,12.06a2.16,2.16,0,0,0,2.71,1.39l10.8-3.51a2.13,2.13,0,0,1,2.48.9,41.92,41.92,0,0,0,3.9,5.36,2.16,2.16,0,0,1,.09,2.64l-6.68,9.19a2.15,2.15,0,0,0,.48,3l10.26,7.46a2.16,2.16,0,0,0,3-.48l6.67-9.18a2.13,2.13,0,0,1,2.54-.73,42.28,42.28,0,0,0,6.31,2,2.14,2.14,0,0,1,1.62,2.09v11.34a2.16,2.16,0,0,0,2.16,2.15h12.68a2.15,2.15,0,0,0,2.15-2.15V484.05a2.15,2.15,0,0,1,1.62-2.09,42.28,42.28,0,0,0,6.31-2,2.13,2.13,0,0,1,2.54.73l6.67,9.18a2.16,2.16,0,0,0,3,.48l10.27-7.46a2.14,2.14,0,0,0,.47-3l-6.67-9.19a2.13,2.13,0,0,1,.09-2.64,43.94,43.94,0,0,0,3.9-5.36,2.12,2.12,0,0,1,2.48-.9l10.79,3.51a2.17,2.17,0,0,0,2.72-1.39L806,451.81A2.15,2.15,0,0,0,804.65,449.1Zm-39-4-7.7,9.66a3.06,3.06,0,0,1-2.38,1.15H743.26a3.06,3.06,0,0,1-2.38-1.15l-7.7-9.66a3,3,0,0,1-.59-2.57l2.75-12a3,3,0,0,1,1.65-2.06l11.13-5.36a3,3,0,0,1,2.63,0l11.14,5.36a3.05,3.05,0,0,1,1.64,2.06l2.75,12A3,3,0,0,1,765.69,445.15Z"
          transform="translate(-64.08 -68.29)"/>
    <path class="cls-4"
          d="M173,438.41a52.25,52.25,0,0,0-3.08-6.12l7.88-8.56L167.65,412,158,418.56a50.68,50.68,0,0,0-11.69-7.05l1.36-11.59-15.08-3.54-3.93,10.95a50.26,50.26,0,0,0-13.61,1.15l-5.7-10.15-14.28,6,3.26,11.17A50.54,50.54,0,0,0,88,424.42l-10.57-4.85-8,13.24L78.64,440a50.63,50.63,0,0,0-3.14,13.28l-11.42,2.28L65.38,471l11.63.36a51.06,51.06,0,0,0,2.21,6.48,52.1,52.1,0,0,0,3.08,6.11l-7.89,8.56,10.12,11.72,9.62-6.55a50.68,50.68,0,0,0,11.69,7.05l-1.36,11.59,15.07,3.54,3.94-10.95a50.26,50.26,0,0,0,13.61-1.15l5.7,10.15,14.28-6-3.26-11.17a50.76,50.76,0,0,0,10.35-8.92l10.57,4.85,8-13.24-9.22-7.14A51.53,51.53,0,0,0,176.68,463l11.41-2.29-1.29-15.43-11.63-.35A52.12,52.12,0,0,0,173,438.41Zm-56.38-14.9A36,36,0,0,1,150,431.35l-16,13.79a15.21,15.21,0,0,0-9.27-2.19Zm7.58,30a5,5,0,1,1-2.67,6.53A5,5,0,0,1,124.16,453.5ZM108,427.1l8.17,19.44a15.26,15.26,0,0,0-4.93,8.15l-21,1.76A35.94,35.94,0,0,1,108,427.1Zm5.42,64.55a35.72,35.72,0,0,1-22.43-26l21-1.76a.64.64,0,0,1,0,.07,15.07,15.07,0,0,0,6.2,7.13Zm26.53-.48a35.59,35.59,0,0,1-17.52,2.61l4.82-20.53a15.52,15.52,0,0,0,4.69-1.13,15.28,15.28,0,0,0,4.09-2.56l18,10.93A35.59,35.59,0,0,1,140,491.17Zm18.9-18.61-18-10.93a15.12,15.12,0,0,0-.75-9.42l0-.07,16-13.77a35.31,35.31,0,0,1,3.12,5.83A35.76,35.76,0,0,1,158.89,472.56Z"
          transform="translate(-64.08 -68.29)"/>
    <path class="cls-2"
          d="M488.83,148.75l-3.77-2.87a3.09,3.09,0,0,1,0-4.92l3.78-2.85a3.08,3.08,0,0,0-.56-5.26l-4.29-2A3.09,3.09,0,0,1,483,126l3.08-3.59a3.08,3.08,0,0,0-1.67-5l-4.62-1a3.09,3.09,0,0,1-2.06-4.47l2.24-4.18a3.09,3.09,0,0,0-2.72-4.54h-4.73a3.08,3.08,0,0,1-3-3.92l1.29-4.56a3.08,3.08,0,0,0-3.63-3.85l-4.62,1a3.08,3.08,0,0,1-3.74-3.19l.27-4.73a3.08,3.08,0,0,0-4.37-3l-4.3,2a3.08,3.08,0,0,1-4.34-2.32L445.33,76a3.09,3.09,0,0,0-4.92-2l-3.77,2.85a3.09,3.09,0,0,1-4.74-1.32l-1.73-4.41a3.09,3.09,0,0,0-5.22-.87l-3.07,3.6a3.08,3.08,0,0,1-4.91-.28l-2.64-3.93a3.09,3.09,0,0,0-5.29.28l-2.22,4.17a3.09,3.09,0,0,1-4.86.79l-3.42-3.27a3.08,3.08,0,0,0-5.1,1.4l-1.27,4.56a3.08,3.08,0,0,1-4.58,1.8l-4-2.45a3.09,3.09,0,0,0-4.69,2.46l-.26,4.73a3.09,3.09,0,0,1-4.08,2.75L370,85.34a3.08,3.08,0,0,0-4,3.41l.76,4.67a3.1,3.1,0,0,1-3.4,3.57l-4.7-.54a3.09,3.09,0,0,0-3.22,4.21l1.75,4.4a3.09,3.09,0,0,1-2.55,4.21l-4.71.49a3.09,3.09,0,0,0-2.23,4.8l2.65,3.92a3.09,3.09,0,0,1-1.59,4.66l-4.49,1.49a3.08,3.08,0,0,0-1.15,5.16l3.43,3.26a3.09,3.09,0,0,1-.54,4.89l-4.07,2.43a3.08,3.08,0,0,0,0,5.29L346,148.1a3.1,3.1,0,0,1,.52,4.9l-3.45,3.24a3.08,3.08,0,0,0,1.12,5.17l4.48,1.52a3.08,3.08,0,0,1,1.56,4.66l-2.67,3.91a3.08,3.08,0,0,0,2.21,4.81l4.7.52a3.08,3.08,0,0,1,2.52,4.22l-1.77,4.39a3.09,3.09,0,0,0,3.2,4.22l4.7-.5a3.08,3.08,0,0,1,3.37,3.58l-.78,4.67a3.08,3.08,0,0,0,4,3.43l4.49-1.5a3.08,3.08,0,0,1,4.06,2.77l.24,4.73a3.08,3.08,0,0,0,4.67,2.49l4.06-2.43a3.08,3.08,0,0,1,4.56,1.83L393,213.3a3.09,3.09,0,0,0,5.1,1.43l3.44-3.25a3.08,3.08,0,0,1,4.85.81l2.2,4.19a3.08,3.08,0,0,0,5.28.3l2.67-3.91a3.08,3.08,0,0,1,4.91-.26l3.05,3.62a3.08,3.08,0,0,0,5.22-.84l1.76-4.39a3.09,3.09,0,0,1,4.75-1.31l3.75,2.89a3.09,3.09,0,0,0,4.92-2l.78-4.67a3.08,3.08,0,0,1,4.35-2.29l4.29,2a3.08,3.08,0,0,0,4.39-2.95L458.5,198a3.08,3.08,0,0,1,3.75-3.17l4.62,1a3.08,3.08,0,0,0,3.65-3.83l-1.26-4.56a3.09,3.09,0,0,1,3-3.91l4.73,0a3.09,3.09,0,0,0,2.75-4.53l-2.21-4.18a3.08,3.08,0,0,1,2.07-4.46l4.63-1a3.08,3.08,0,0,0,1.7-5l-3.05-3.61a3.08,3.08,0,0,1,1.07-4.8l4.3-2A3.09,3.09,0,0,0,488.83,148.75Zm-73.59,24.36a29.9,29.9,0,1,1,29.91-29.9A29.9,29.9,0,0,1,415.24,173.11Z"
          transform="translate(-64.08 -68.29)"/>
    <path class="cls-1"
          d="M707.94,525.1l6.12-2v-6.92l-6.12-2-4.22-.28a35.66,35.66,0,0,0-1.89-7.06l3.51-2.35,4.31-4.79-3.46-6-6.3,1.34-3.79,1.86a36.54,36.54,0,0,0-5.17-5.16l1.86-3.8,1.34-6.29-6-3.46-4.78,4.31L681,486a35.39,35.39,0,0,0-7-1.89l-.29-4.21-2-6.13h-6.92l-2,6.13-.28,4.21a35.66,35.66,0,0,0-7.06,1.89l-2.35-3.51-4.78-4.3-6,3.46,1.34,6.29,1.86,3.8a36,36,0,0,0-5.16,5.16l-3.8-1.86-6.29-1.34-3.46,6,4.31,4.79,3.5,2.35a36.36,36.36,0,0,0-1.89,7.06l-4.21.28-6.13,2v6.92l6.13,2,4.21.29a36.07,36.07,0,0,0,1.89,7.05l-3.5,2.36-4.31,4.78,3.46,6,6.29-1.34,3.8-1.86a36.54,36.54,0,0,0,5.16,5.17l-1.86,3.79-1.34,6.3,6,3.46,4.78-4.31,2.35-3.51a35.66,35.66,0,0,0,7.06,1.89l.28,4.22,2,6.12h6.92l2-6.12.29-4.22a35.39,35.39,0,0,0,7-1.89l2.36,3.51,4.78,4.31,6-3.46-1.34-6.3-1.86-3.79a37.15,37.15,0,0,0,5.17-5.17l3.79,1.86,6.3,1.34,3.46-6-4.31-4.78-3.51-2.36a35.39,35.39,0,0,0,1.89-7.05Zm-39.73,19.13a24.58,24.58,0,1,1,24.58-24.58A24.58,24.58,0,0,1,668.21,544.23Z"
          transform="translate(-64.08 -68.29)"/>
    <path class="cls-3"
          d="M505.66,640.86l1.29-2.6-1.29-2.61,1-2.71-1.51-2.47.79-2.79-1.74-2.33.52-2.85-1.94-2.15.25-2.89-2.13-2,0-2.9-2.31-1.75-.28-2.89-2.46-1.54-.55-2.85-2.59-1.3-.81-2.79-2.7-1.05-1.06-2.71-2.78-.8-1.31-2.59-2.85-.55-1.53-2.46L476.8,589l-1.75-2.31h-2.91l-2-2.14-2.89.26-2.15-2-2.86.53L460,581.66l-2.79.79-2.48-1.52L452,582l-2.6-1.28-2.6,1.28-2.71-1-2.48,1.52-2.79-.79-2.33,1.74-2.85-.53-2.15,2-2.89-.26-2,2.14h-2.91L422,589l-2.89.28-1.53,2.47-2.85.54-1.31,2.6-2.78.8-1.06,2.7-2.7,1.06-.81,2.79-2.59,1.3-.55,2.85L400.43,608l-.28,2.88-2.31,1.76,0,2.9-2.14,2,.26,2.89L394,622.5l.53,2.85-1.74,2.33.79,2.79-1.52,2.47,1,2.71-1.28,2.61,1.28,2.6-1,2.71,1.52,2.47-.79,2.8,1.74,2.32L394,654l1.95,2.15-.26,2.89,2.14,2v2.9l2.31,1.76.29,2.88,2.46,1.54.54,2.85,2.6,1.3.8,2.79,2.71,1.06,1,2.7,2.79.8,1.3,2.6,2.85.54,1.54,2.47,2.89.28,1.75,2.31h2.9l2,2.14,2.89-.26,2.15,1.95,2.85-.52,2.33,1.73,2.79-.78,2.48,1.51,2.7-1,2.61,1.28,2.6-1.28,2.71,1,2.48-1.51,2.79.78,2.32-1.73,2.86.52,2.15-1.95,2.89.26,2-2.14H475l1.76-2.31,2.89-.28,1.53-2.46,2.85-.55,1.3-2.59,2.79-.81,1.06-2.7,2.7-1.06.81-2.79,2.59-1.3.55-2.85,2.46-1.53.28-2.89,2.31-1.76V661l2.14-2-.25-2.89,1.94-2.15-.52-2.86,1.74-2.32-.79-2.8,1.51-2.47Zm-90.8-2.23a11,11,0,1,1,13.88-7.08A11,11,0,0,1,414.86,638.63Zm24.2,32.58a11,11,0,1,1-2.44-15.4A11,11,0,0,1,439.06,671.21Zm10.32-26.57a6.39,6.39,0,1,1,6.38-6.38A6.39,6.39,0,0,1,449.38,644.64Zm0-28.08a11,11,0,1,1,11-11A11,11,0,0,1,449.38,616.56Zm25.71,57.08a11,11,0,1,1,2.44-15.39A11,11,0,0,1,475.09,673.64Zm8.81-35A11,11,0,1,1,491,624.74,11,11,0,0,1,483.9,638.63Z"
          transform="translate(-64.08 -68.29)"/>
    <path class="cls-1"
          d="M473,536.87h0c0-.91-.13-1.81-.25-2.7h0a1.32,1.32,0,0,0,1.06-1.54c-.11-.62-.25-1.23-.4-1.83a1.32,1.32,0,0,0-1.6-1h0a25,25,0,0,0-.89-2.56l0,0a1.33,1.33,0,0,0,.66-1.75c-.26-.56-.54-1.13-.83-1.67a1.32,1.32,0,0,0-1.79-.56l0,0c-.46-.78-.95-1.54-1.48-2.27l0,0a1.31,1.31,0,0,0,.22-1.86c-.38-.49-.79-1-1.2-1.43a1.32,1.32,0,0,0-1.87-.11l0,0c-.63-.65-1.3-1.27-2-1.86l0,0a1.32,1.32,0,0,0-.23-1.86c-.49-.38-1-.75-1.5-1.1a1.33,1.33,0,0,0-1.85.34v0c-.77-.48-1.56-.92-2.37-1.33l0,0a1.32,1.32,0,0,0-.67-1.75c-.57-.26-1.15-.5-1.73-.72a1.33,1.33,0,0,0-1.71.78,0,0,0,0,1,0,0c-.85-.28-1.73-.52-2.61-.72a.08.08,0,0,1,0,0,1.31,1.31,0,0,0-1.07-1.53c-.61-.11-1.23-.21-1.85-.28a1.31,1.31,0,0,0-1.47,1.16v0c-.73,0-1.45-.09-2.19-.09h-.53s0,0,0,0a1.33,1.33,0,0,0-1.4-1.25q-.93.06-1.86.18a1.31,1.31,0,0,0-1.15,1.47.06.06,0,0,0,0,0c-.9.15-1.79.34-2.66.57a.06.06,0,0,0,0,0,1.32,1.32,0,0,0-1.66-.86c-.59.18-1.18.39-1.76.61a1.33,1.33,0,0,0-.77,1.71l0,0c-.83.36-1.65.76-2.44,1.19a0,0,0,0,1,0,0,1.33,1.33,0,0,0-1.82-.44c-.53.32-1.06.66-1.57,1a1.32,1.32,0,0,0-.33,1.84l0,0c-.72.55-1.42,1.13-2.08,1.74l0,0a1.34,1.34,0,0,0-1.88,0c-.44.44-.87.89-1.28,1.36a1.33,1.33,0,0,0,.12,1.87l0,0a26.8,26.8,0,0,0-1.61,2.19l0,0a1.32,1.32,0,0,0-1.82.45c-.32.53-.63,1.08-.91,1.62a1.33,1.33,0,0,0,.55,1.79l0,0c-.38.81-.73,1.65-1,2.51l0,0a1.34,1.34,0,0,0-1.66.88c-.18.59-.35,1.19-.5,1.8a1.32,1.32,0,0,0,1,1.6h0c-.17.89-.31,1.78-.41,2.69h0a1.34,1.34,0,0,0-1.4,1.25c0,.6-.05,1.22-.05,1.8v.06a1.32,1.32,0,0,0,1.33,1.31h0c0,.92.13,1.83.25,2.73h0a1.32,1.32,0,0,0-1.06,1.54c.11.61.24,1.23.39,1.83a1.33,1.33,0,0,0,1.29,1,1.87,1.87,0,0,0,.32,0h0c.26.87.56,1.72.89,2.56h0a1.33,1.33,0,0,0-.67,1.76c.26.56.53,1.12.82,1.67a1.33,1.33,0,0,0,1.79.56l0,0c.46.78,1,1.54,1.48,2.27l0,0a1.33,1.33,0,0,0-.22,1.86q.57.74,1.2,1.44a1.32,1.32,0,0,0,1,.44,1.36,1.36,0,0,0,.88-.33l0,0q.94,1,2,1.86l0,0a1.33,1.33,0,0,0,.22,1.87c.49.38,1,.75,1.51,1.1a1.31,1.31,0,0,0,.75.24,1.33,1.33,0,0,0,1.09-.57l0,0c.76.48,1.55.93,2.36,1.34v0a1.31,1.31,0,0,0,.66,1.75c.56.26,1.14.5,1.73.72a1.26,1.26,0,0,0,.47.08,1.32,1.32,0,0,0,1.24-.85s0,0,0,0q1.27.42,2.61.72s0,0,0,0a1.33,1.33,0,0,0,1.07,1.54c.6.11,1.22.2,1.85.28h.15a1.33,1.33,0,0,0,1.32-1.17v0c.74.06,1.48.09,2.23.09h.48v0a1.32,1.32,0,0,0,1.32,1.24h.08c.62,0,1.25-.09,1.86-.17a1.31,1.31,0,0,0,1.16-1.47s0,0,0,0c.9-.15,1.79-.33,2.66-.56v0a1.33,1.33,0,0,0,1.66.87c.59-.18,1.19-.39,1.77-.61a1.33,1.33,0,0,0,.77-1.71l0,0a26.2,26.2,0,0,0,2.44-1.19l0,0a1.32,1.32,0,0,0,1.13.64,1.36,1.36,0,0,0,.69-.19c.52-.32,1.05-.66,1.56-1a1.33,1.33,0,0,0,.34-1.84l0,0a26.76,26.76,0,0,0,2.09-1.74l0,0a1.33,1.33,0,0,0,1.88,0c.43-.44.87-.9,1.27-1.36a1.32,1.32,0,0,0-.11-1.87l0,0q.86-1.05,1.62-2.19l0,0a1.33,1.33,0,0,0,.69.19,1.31,1.31,0,0,0,1.13-.63c.32-.53.63-1.08.92-1.63a1.33,1.33,0,0,0-.55-1.79h0c.39-.82.74-1.66,1.05-2.51h0a1.31,1.31,0,0,0,1.65-.87c.19-.59.36-1.2.5-1.8a1.31,1.31,0,0,0-1-1.6h0c.18-.88.31-1.78.41-2.68h.11a1.32,1.32,0,0,0,1.32-1.24c0-.62.06-1.24.06-1.87v-.08A1.33,1.33,0,0,0,473,536.87Zm-7.14,4.79-1.19,1.47.43,1.83-1.39,1.28.15,1.88-1.56,1.06-.14,1.88-1.7.81-.41,1.84-1.81.55-.68,1.76-1.87.27-.93,1.64h-1.89l-1.17,1.49-1.86-.29-1.38,1.29-1.8-.57-1.56,1.07-1.69-.83-1.7.83-1.55-1.07-1.8.57L437,559.12l-1.87.29-1.17-1.49H432l-.94-1.64-1.86-.27-.68-1.76-1.81-.55-.41-1.84-1.71-.81-.13-1.88-1.57-1.06.15-1.88L421.68,545l.43-1.83-1.18-1.47.7-1.76-.95-1.63.95-1.63-.7-1.75,1.18-1.47-.43-1.84,1.39-1.28-.14-1.88,1.56-1,.13-1.88,1.71-.81.41-1.85,1.81-.54.68-1.76,1.86-.28.94-1.64h1.89l1.16-1.48,1.87.29,1.38-1.29,1.8.57,1.55-1.07,1.7.83,1.69-.83,1.56,1.07,1.8-.57,1.38,1.29,1.86-.29,1.17,1.48h1.89l.93,1.64,1.87.28.68,1.76,1.81.55.41,1.84,1.7.81.14,1.88,1.56,1-.15,1.88,1.39,1.28-.43,1.84,1.18,1.47-.69,1.75.95,1.63-.95,1.63Z"
          transform="translate(-64.08 -68.29)"/>
    <path class="cls-1"
          d="M379.27,531.55a18,18,0,0,1,14.24-19.8,109.32,109.32,0,0,0-5.85-15.44,18,18,0,0,1-20.41-29.5,108.75,108.75,0,0,0-12.34-10.95,18,18,0,0,1-31.75-16.68,108.29,108.29,0,0,0-16-3.95,18,18,0,0,1-35.86,0,108.29,108.29,0,0,0-16,3.95,18,18,0,0,1-31.75,16.68,108.75,108.75,0,0,0-12.34,10.95,18,18,0,0,1-20.41,29.5,109.32,109.32,0,0,0-5.85,15.44,18,18,0,0,1-4.31,35.61,110.21,110.21,0,0,0,2,16.39,18,18,0,0,1,12.74,33.53,109,109,0,0,0,9.38,13.59,18,18,0,0,1,26.85,23.78,108,108,0,0,0,14.6,7.7,18,18,0,0,1,34.84,8.54c2.73.21,5.47.34,8.25.34s5.52-.13,8.25-.34a18,18,0,0,1,34.84-8.54,108,108,0,0,0,14.6-7.7,18,18,0,0,1,26.85-23.78,109,109,0,0,0,9.38-13.59,18,18,0,0,1,12.74-33.53,110.21,110.21,0,0,0,2-16.39A18,18,0,0,1,379.27,531.55Zm-51.4,17.06-2.82,2.49,1.39,3.49-3.18,2,.82,3.67-3.45,1.49.24,3.74-3.64.93-.36,3.74-3.74.36-.93,3.63-3.74-.23L307,577.38l-3.67-.82-2,3.17-3.49-1.38-2.48,2.81-3.23-1.91-2.9,2.39-2.9-2.39-3.23,1.91-2.49-2.81-3.49,1.38-2-3.17-3.66.82-1.49-3.45-3.75.23-.93-3.64-3.74-.35-.35-3.74-3.64-.93.24-3.75-3.45-1.49.82-3.66-3.18-2,1.39-3.49-2.82-2.49,1.92-3.23L250,542.49l2.39-2.9-1.92-3.23,2.82-2.49L252,530.38l3.17-2-.82-3.67,3.45-1.49-.23-3.74,3.63-.93.36-3.74,3.74-.36.93-3.63,3.75.23,1.48-3.45,3.67.82,2-3.17,3.49,1.38,2.48-2.81,3.23,1.91,2.9-2.39,2.9,2.4,3.23-1.92,2.49,2.81,3.49-1.38,2,3.17,3.66-.82,1.49,3.45,3.75-.23.93,3.64,3.74.35.35,3.74,3.64.93-.23,3.75,3.44,1.49-.81,3.66,3.17,2-1.39,3.49,2.82,2.49L326,539.59l2.39,2.9L326,545.38Z"
          transform="translate(-64.08 -68.29)"/>
    <path class="cls-1"
          d="M759.55,512.06a36,36,0,1,0,36,36A36.08,36.08,0,0,0,759.55,512.06ZM786,550.54l-4.9.52-.85,3.72,4.18,2.6.26.09a.69.69,0,0,1,.39.36.65.65,0,0,1,0,.53,26.69,26.69,0,0,1-1.6,3.32.68.68,0,0,1-.42.32.75.75,0,0,1-.53-.08l-.22-.15-4.64-1.65-2.38,3,2.64,4.15.18.18a.63.63,0,0,1,.2.5.64.64,0,0,1-.22.48,26.52,26.52,0,0,1-2.87,2.3.73.73,0,0,1-.52.11.7.7,0,0,1-.44-.31l-.14-.22-3.46-3.5-3.44,1.66.58,4.89.08.25a.66.66,0,0,1,0,.53.69.69,0,0,1-.41.34,27.05,27.05,0,0,1-3.59.81.67.67,0,0,1-.78-.59l0-.26-1.6-4.65h-3.82l-1.6,4.65,0,.27a.66.66,0,0,1-.26.46.68.68,0,0,1-.5.13,28.5,28.5,0,0,1-3.6-.82.66.66,0,0,1-.41-.34.66.66,0,0,1,0-.53l.09-.25.58-4.89-3.44-1.66L745,570.3l-.14.22a.65.65,0,0,1-.44.3.68.68,0,0,1-.52-.1,27.64,27.64,0,0,1-2.88-2.3.72.72,0,0,1-.22-.48.7.7,0,0,1,.2-.5l.18-.18,2.65-4.15-2.39-3-4.63,1.65-.23.15a.75.75,0,0,1-.53.08.68.68,0,0,1-.42-.32,28.18,28.18,0,0,1-1.6-3.32.7.7,0,0,1,0-.53.68.68,0,0,1,.4-.36l.25-.09,4.18-2.6-.85-3.72-4.89-.52-.26,0a.69.69,0,0,1-.75-.63c-.05-.61-.07-1.22-.07-1.84s0-1.23.07-1.84a.67.67,0,0,1,.75-.63l.26,0,4.89-.52.85-3.73-4.18-2.59-.25-.09a.68.68,0,0,1-.4-.36.7.7,0,0,1,0-.53,27.44,27.44,0,0,1,1.6-3.32.65.65,0,0,1,.42-.32.66.66,0,0,1,.53.08l.23.14,4.63,1.66,2.39-3-2.65-4.15-.18-.19a.68.68,0,0,1-.2-.49.76.76,0,0,1,.22-.49,27.89,27.89,0,0,1,2.67-2.15.92.92,0,0,1,.7-.15.94.94,0,0,1,.6.41v0l3.46,3.5,3.44-1.66-.58-4.89-.09-.25a.65.65,0,0,1,0-.53.63.63,0,0,1,.41-.34,28,28,0,0,1,3.59-.82.67.67,0,0,1,.51.13.66.66,0,0,1,.26.47l0,.26,1.6,4.65h3.82l1.6-4.66,0-.26a.67.67,0,0,1,.26-.46.66.66,0,0,1,.51-.13,26.87,26.87,0,0,1,3.6.82.67.67,0,0,1,.44.87l-.08.25-.58,4.89,3.44,1.66,3.46-3.5.14-.23a.69.69,0,0,1,.44-.3.64.64,0,0,1,.52.11,27.7,27.7,0,0,1,2.87,2.29.66.66,0,0,1,.22.49.61.61,0,0,1-.2.49l-.18.19-2.64,4.15,2.38,3,4.64-1.66.22-.14a.66.66,0,0,1,.53-.08.65.65,0,0,1,.42.32,26,26,0,0,1,1.6,3.32.65.65,0,0,1,0,.53.66.66,0,0,1-.39.36l-.26.09-4.18,2.59.85,3.73,4.9.52.26,0a.69.69,0,0,1,.51.15.68.68,0,0,1,.24.48c0,.61.06,1.22.06,1.84s0,1.23-.06,1.84a.68.68,0,0,1-.24.47.69.69,0,0,1-.51.16Z"
          transform="translate(-64.08 -68.29)"/>
    <path class="cls-1"
          d="M339.46,279.64q.18-.51.33-1.05c0-.15.09-.31.13-.47l.12-.46.12-.52.09-.45c0-.19.07-.38.1-.56a.15.15,0,0,1,0-.07l2.53-.17,3.68-1.2v-4.16l-3.68-1.19-2.53-.17a21.65,21.65,0,0,0-1.14-4.25l2.11-1.41,2.59-2.88-2.08-3.6-3.79.8L335.77,259l-.4-.47-.09-.1q-.27-.31-.57-.63l-.09-.09-.6-.61-.09-.08c-.21-.2-.42-.4-.64-.59l-.07-.06c-.18-.16-.36-.32-.55-.47l1.12-2.28.8-3.79L331,247.7l-2.88,2.59-1.41,2.11c-.65-.25-1.31-.46-2-.65h0a21.1,21.1,0,0,0-2.26-.49l-.17-2.53-1.19-3.68h-4.16l-1.2,3.68-.17,2.53a20.41,20.41,0,0,0-2.25.49h0c-.67.19-1.34.4-2,.65l-1.42-2.11L307,247.7l-3.6,2.08.81,3.79,1.12,2.28-.56.47-.07.06c-.22.19-.43.39-.64.59a.6.6,0,0,0-.08.08c-.21.2-.41.4-.61.61l-.09.09-.57.63a.39.39,0,0,0-.08.1c-.14.15-.28.31-.41.47L300,257.83l-3.79-.8-2.08,3.6,2.59,2.88,2.11,1.41a21.63,21.63,0,0,0-1.13,4.25l-2.54.17-3.68,1.19v4.16l3.68,1.2,2.54.17a.2.2,0,0,0,0,.07c0,.18.06.37.1.56s.05.3.09.45.08.35.12.52.07.31.11.46.09.32.13.47c.1.36.22.71.33,1.05,0,.1.07.19.1.29s.09.25.14.37l-2.11,1.42-2.59,2.88,2.08,3.6,3.79-.81,2.28-1.12a21.77,21.77,0,0,0,3.11,3.11l-1.12,2.28-.81,3.79,3.6,2.08,2.88-2.59,1.42-2.11h0l.8.29.15.05.74.22.24.07.68.17.32.08.64.13.4.07.24,0,.17,2.54,1.2,3.68h4.16l1.19-3.68.17-2.54.24,0,.41-.07.63-.13.32-.08.69-.17.24-.07.73-.22.15-.05.8-.29h0l1.41,2.11,2.88,2.59,3.6-2.08-.8-3.79-1.12-2.28a22.23,22.23,0,0,0,3.1-3.11l2.28,1.12,3.79.81,2.08-3.6-2.59-2.88-2.11-1.42c0-.12.1-.25.14-.37S339.43,279.74,339.46,279.64Zm-35.91-6c0-.35,0-.71,0-1.07a15.41,15.41,0,0,1,3.63-9.94c3,1.88,4.68,4.81,3.85,7.34S307.11,273.94,303.55,273.68Zm11.69,14a15.52,15.52,0,0,1-9.36-6.81c2.73-2.3,6-3,8.17-1.4S316.58,284.33,315.24,287.64ZM319,264.19c-2.67,0-4.94-2.48-5.8-5.94a15.42,15.42,0,0,1,11.59,0C323.94,261.71,321.67,264.19,319,264.19Zm3.76,23.45c-1.34-3.31-1-6.64,1.19-8.21s5.44-.9,8.17,1.4A15.49,15.49,0,0,1,322.77,287.64Zm11.69-14c-3.56.26-6.62-1.14-7.44-3.67s.83-5.46,3.86-7.34a15.41,15.41,0,0,1,3.62,9.94C334.5,273,334.48,273.33,334.46,273.68Z"
          transform="translate(-64.08 -68.29)"/>
    <path class="cls-2"
          d="M236.9,680.52l3.13-2.58-3.13-2.57,2.82-2.91-3.39-2.21,2.48-3.21-3.63-1.81,2.11-3.47-3.81-1.39,1.71-3.68-3.94-1,1.28-3.85-4-.51.84-4-4.05-.06.39-4-4,.39-.06-4.05-4,.84-.51-4-3.85,1.28-1-3.94-3.68,1.7-1.39-3.8-3.47,2.1-1.82-3.62-3.2,2.48-2.21-3.4-2.91,2.83L191,629l-2.58,3.13-2.9-2.83-2.22,3.4-3.2-2.48-1.82,3.62-3.46-2.11-1.4,3.81-3.68-1.7-1,3.94L165,636.46l-.52,4-4-.84-.06,4.06-4-.4.4,4-4.06.06.84,4-4,.51,1.28,3.85-3.94.95,1.7,3.68-3.81,1.4,2.11,3.46L143.27,667l2.49,3.21-3.4,2.21,2.82,2.91-3.13,2.57,3.13,2.58-2.82,2.91,3.4,2.21-2.49,3.21,3.63,1.81-2.11,3.47,3.81,1.39-1.71,3.68,3.94,1L149.56,704l4,.51-.84,4,4,.06-.39,4,4-.39.05,4,4-.84.51,4,3.85-1.28,1,3.94,3.68-1.7,1.39,3.8,3.47-2.1,1.82,3.62,3.2-2.48,2.22,3.4,2.9-2.83,2.58,3.13,2.58-3.13,2.91,2.83,2.21-3.4,3.2,2.48,1.82-3.62,3.46,2.11,1.4-3.81,3.68,1.7,1-3.94,3.85,1.28.51-4,4,.84.06-4.06,4,.4-.39-4,4.05-.06-.84-4,4-.51-1.27-3.85,3.94-.95-1.71-3.68,3.81-1.4-2.11-3.46,3.63-1.82-2.48-3.21,3.39-2.21Zm-41.26-34.85a2.11,2.11,0,0,1,.77-1.61,2.07,2.07,0,0,1,1.73-.42,34.66,34.66,0,0,1,12.14,5,2.09,2.09,0,0,1,.92,1.53,2.06,2.06,0,0,1-.59,1.68l-13.92,13.92c-.34-.16-.69-.3-1.05-.43Zm-23.84,3a34.73,34.73,0,0,1,12.14-5,2.08,2.08,0,0,1,2.5,2v19.69c-.36.13-.71.27-1.05.43l-13.91-13.92a2.06,2.06,0,0,1-.6-1.68A2.09,2.09,0,0,1,171.8,648.66Zm-15.07,22.19a34.86,34.86,0,0,1,5-12.14,2,2,0,0,1,1.53-.93,2.07,2.07,0,0,1,1.67.6l13.92,13.92c-.16.34-.3.69-.43,1H158.77a2.08,2.08,0,0,1-2-2.49ZM165,697.51a2.07,2.07,0,0,1-3.2-.33,34.86,34.86,0,0,1-5-12.14,2.08,2.08,0,0,1,2-2.49h19.68c.13.35.27.7.43,1Zm21.48,12.71a2.08,2.08,0,0,1-2.5,2,34.56,34.56,0,0,1-12.14-5,2.05,2.05,0,0,1-.92-1.52,2,2,0,0,1,.6-1.68l13.91-13.92c.34.16.69.3,1.05.43Zm4.6-25.8a6.48,6.48,0,1,1,6.48-6.48A6.48,6.48,0,0,1,191,684.42Zm19.24,22.81a34.66,34.66,0,0,1-12.14,5,2.08,2.08,0,0,1-2.5-2V690.53c.36-.13.71-.27,1.05-.43L210.61,704a2.06,2.06,0,0,1,.59,1.68A2.09,2.09,0,0,1,210.28,707.23ZM225.35,685a34.86,34.86,0,0,1-5,12.14,2,2,0,0,1-1.52.93,2.1,2.1,0,0,1-1.68-.6L203.2,683.59c.16-.34.3-.69.43-1h19.68a2.08,2.08,0,0,1,2,2.49Zm-.43-12.46a2.07,2.07,0,0,1-1.61.76H203.63c-.13-.35-.27-.7-.43-1l13.92-13.92a2.07,2.07,0,0,1,3.2.33,34.86,34.86,0,0,1,5,12.14A2.05,2.05,0,0,1,224.92,672.58Z"
          transform="translate(-64.08 -68.29)"/>
    <path class="cls-3"
          d="M306.49,351l-4.08-1.33-.77-.05a68.24,68.24,0,0,0-1.12-8.64l.71-.25,3.6-2.33a1.55,1.55,0,0,0,.66-1.7l-.93-3.46a1.54,1.54,0,0,0-1.41-1.14l-4.29-.23-.74.15a70.36,70.36,0,0,0-3.33-8.06l.62-.42,2.87-3.19a1.54,1.54,0,0,0,.19-1.81l-1.79-3.1a1.53,1.53,0,0,0-1.66-.73l-4.2.89-.67.33a68.87,68.87,0,0,0-5.33-6.9l.51-.59,1.95-3.82a1.55,1.55,0,0,0-.28-1.8l-2.53-2.53a1.55,1.55,0,0,0-1.8-.28L278.84,302l-.58.51a67.42,67.42,0,0,0-6.9-5.33l.33-.67.89-4.2a1.54,1.54,0,0,0-.74-1.66l-3.09-1.79a1.54,1.54,0,0,0-1.81.19l-3.19,2.87-.42.62a70.36,70.36,0,0,0-8.06-3.33l.14-.74-.22-4.29a1.54,1.54,0,0,0-1.14-1.41l-3.46-.93a1.55,1.55,0,0,0-1.7.66l-2.34,3.6-.24.71a68.24,68.24,0,0,0-8.64-1.12l-.06-.77-1.32-4.08a1.55,1.55,0,0,0-1.47-1.07h-3.58a1.54,1.54,0,0,0-1.47,1.07l-1.33,4.08-.05.77a68.39,68.39,0,0,0-8.65,1.12l-.24-.71-2.34-3.6a1.54,1.54,0,0,0-1.7-.66l-3.45.93a1.55,1.55,0,0,0-1.15,1.41l-.22,4.29.15.74a69.62,69.62,0,0,0-8.06,3.33l-.42-.62L199.12,289a1.54,1.54,0,0,0-1.81-.19l-3.1,1.79a1.54,1.54,0,0,0-.74,1.66l.9,4.2.33.67a68.66,68.66,0,0,0-6.91,5.33l-.58-.51L183.38,300a1.53,1.53,0,0,0-1.79.28l-2.53,2.53a1.57,1.57,0,0,0-.29,1.8l2,3.83.5.58a67.33,67.33,0,0,0-5.32,6.9l-.67-.33-4.21-.89a1.55,1.55,0,0,0-1.66.73l-1.79,3.1a1.57,1.57,0,0,0,.19,1.81l2.88,3.19.62.42a66.93,66.93,0,0,0-3.33,8.06l-.74-.15-4.29.23a1.54,1.54,0,0,0-1.41,1.14l-.93,3.46a1.56,1.56,0,0,0,.65,1.7l3.6,2.33.72.25a68.24,68.24,0,0,0-1.13,8.64l-.76.05L159.56,351a1.55,1.55,0,0,0-1.07,1.47v3.58a1.55,1.55,0,0,0,1.07,1.47l4.09,1.33.76,0a68.4,68.4,0,0,0,1.13,8.65l-.72.24-3.6,2.34a1.54,1.54,0,0,0-.65,1.69l.93,3.46a1.53,1.53,0,0,0,1.41,1.14l4.29.23.74-.15a66.27,66.27,0,0,0,3.33,8.06l-.62.42-2.88,3.19a1.57,1.57,0,0,0-.19,1.81l1.79,3.1a1.55,1.55,0,0,0,1.66.74l4.21-.9.67-.33a68.57,68.57,0,0,0,5.32,6.91l-.5.58-2,3.82a1.57,1.57,0,0,0,.29,1.8l2.53,2.53a1.53,1.53,0,0,0,1.79.28l3.83-1.95.58-.5a68.57,68.57,0,0,0,6.91,5.32l-.33.67-.9,4.2a1.56,1.56,0,0,0,.74,1.67l3.1,1.78a1.54,1.54,0,0,0,1.81-.19l3.19-2.87.42-.62a67.9,67.9,0,0,0,8.06,3.33l-.15.74.22,4.29a1.55,1.55,0,0,0,1.15,1.41l3.45.93a1.55,1.55,0,0,0,1.7-.65l2.34-3.61.24-.71a66.62,66.62,0,0,0,8.65,1.12l.05.77,1.33,4.09a1.55,1.55,0,0,0,1.47,1.07h3.58a1.56,1.56,0,0,0,1.47-1.07l1.32-4.09.06-.77a66.46,66.46,0,0,0,8.64-1.12l.24.71,2.34,3.61a1.56,1.56,0,0,0,1.7.65l3.46-.93a1.54,1.54,0,0,0,1.14-1.41l.22-4.29-.14-.74a68.6,68.6,0,0,0,8.06-3.33l.42.62,3.19,2.87a1.54,1.54,0,0,0,1.81.19l3.09-1.78a1.56,1.56,0,0,0,.74-1.67l-.89-4.2-.33-.67a67.33,67.33,0,0,0,6.9-5.32l.58.5,3.83,1.95a1.55,1.55,0,0,0,1.8-.28L287,405.7a1.55,1.55,0,0,0,.28-1.8l-1.95-3.82-.51-.58a70.16,70.16,0,0,0,5.33-6.91l.67.33,4.2.9a1.54,1.54,0,0,0,1.66-.74l1.79-3.1a1.54,1.54,0,0,0-.19-1.81L295.41,385l-.62-.42a69.62,69.62,0,0,0,3.33-8.06l.74.15,4.29-.23a1.53,1.53,0,0,0,1.41-1.14l.93-3.46a1.54,1.54,0,0,0-.66-1.69l-3.6-2.34-.71-.24a68.39,68.39,0,0,0,1.12-8.65l.77,0,4.08-1.33a1.55,1.55,0,0,0,1.07-1.47v-3.58A1.55,1.55,0,0,0,306.49,351ZM233,300a11.44,11.44,0,1,1-11.44,11.44A11.44,11.44,0,0,1,233,300Zm-31.36,85.57A11.44,11.44,0,1,1,205.86,370,11.45,11.45,0,0,1,201.67,385.58Zm4.19-47A11.44,11.44,0,1,1,201.67,323,11.44,11.44,0,0,1,205.86,338.58ZM233,408.51a11.44,11.44,0,1,1,11.44-11.44A11.44,11.44,0,0,1,233,408.51Zm11.19-34.86a22.39,22.39,0,1,1,8.2-30.58A22.39,22.39,0,0,1,244.22,373.65ZM280,381.39a11.44,11.44,0,1,1-4.19-15.63A11.45,11.45,0,0,1,280,381.39Zm-4.19-38.63A11.44,11.44,0,1,1,280,327.13,11.43,11.43,0,0,1,275.82,342.76Z"
          transform="translate(-64.08 -68.29)"/>
    <path class="cls-5"
          d="M183.53,265h0a3.09,3.09,0,0,0,0-5.33h0a3.09,3.09,0,0,1-.63-4.83h0a3.1,3.1,0,0,0-1.39-5.15,3.11,3.11,0,0,1-1.86-4.51,3.1,3.1,0,0,0-2.67-4.62,3.09,3.09,0,0,1-3-3.86,3.1,3.1,0,0,0-3.78-3.77,3.1,3.1,0,0,1-3.86-3,3.1,3.1,0,0,0-4.62-2.67,3.1,3.1,0,0,1-4.51-1.86,3.09,3.09,0,0,0-5.15-1.38,3.1,3.1,0,0,1-4.83-.64h0a3.09,3.09,0,0,0-5.33,0h0a3.11,3.11,0,0,1-4.84.64,3.1,3.1,0,0,0-5.15,1.38,3.09,3.09,0,0,1-4.5,1.86,3.1,3.1,0,0,0-4.62,2.67,3.1,3.1,0,0,1-3.87,3,3.1,3.1,0,0,0-3.77,3.77,3.09,3.09,0,0,1-3,3.86,3.1,3.1,0,0,0-2.66,4.62,3.11,3.11,0,0,1-1.87,4.51,3.1,3.1,0,0,0-1.38,5.15h0a3.1,3.1,0,0,1-.64,4.83h0a3.1,3.1,0,0,0,0,5.33h0a3.11,3.11,0,0,1,.64,4.84,3.1,3.1,0,0,0,1.38,5.15,3.1,3.1,0,0,1,1.87,4.5h0a3.1,3.1,0,0,0,2.66,4.62,3.1,3.1,0,0,1,3,3.87h0a3.1,3.1,0,0,0,3.77,3.77,3.1,3.1,0,0,1,3.87,3h0a3.1,3.1,0,0,0,4.62,2.66,3.1,3.1,0,0,1,4.5,1.87,3.1,3.1,0,0,0,5.15,1.38,3.11,3.11,0,0,1,4.84.64h0a3.1,3.1,0,0,0,5.33,0h0a3.1,3.1,0,0,1,4.83-.64,3.1,3.1,0,0,0,5.15-1.38,3.11,3.11,0,0,1,4.51-1.87,3.1,3.1,0,0,0,4.62-2.66h0a3.09,3.09,0,0,1,3.86-3A3.1,3.1,0,0,0,174,288h0a3.09,3.09,0,0,1,3-3.87,3.1,3.1,0,0,0,2.67-4.62h0a3.1,3.1,0,0,1,1.86-4.5,3.1,3.1,0,0,0,1.39-5.15A3.1,3.1,0,0,1,183.53,265Zm-36-27a24.39,24.39,0,0,1,12.2,5l-9.06,9.06a12.24,12.24,0,0,0-3.14-1.3Zm-5.89,0V250.8a12,12,0,0,0-3.15,1.3l-9-9.06A24.35,24.35,0,0,1,141.66,238Zm-16.37,9.22,9.06,9.06a11.46,11.46,0,0,0-1.31,3.14H120.23A24.4,24.4,0,0,1,125.29,247.21Zm0,30.3a24.43,24.43,0,0,1-5.06-12.21H133a11.66,11.66,0,0,0,1.31,3.15Zm16.37,9.22a24.36,24.36,0,0,1-12.2-5.06l9-9.06a12,12,0,0,0,3.15,1.31Zm5.49-18.2-2.55,1.25L142,268.53l-2.69-.92-.92-2.7-1.25-2.55,1.25-2.56.92-2.69,2.69-.92,2.56-1.26,2.55,1.26,2.7.92.92,2.69,1.25,2.56-1.25,2.55-.92,2.7Zm.4,18.2V273.91a11.57,11.57,0,0,0,3.14-1.3l9.06,9.06A24.4,24.4,0,0,1,147.55,286.73Zm16.37-9.22-9.07-9.07a11.92,11.92,0,0,0,1.31-3.14H169A24.42,24.42,0,0,1,163.92,277.51Zm-7.76-18.1a11.92,11.92,0,0,0-1.31-3.14l9.07-9.06a24.39,24.39,0,0,1,5.05,12.2Z"
          transform="translate(-64.08 -68.29)"/>
    <path class="cls-1"
          d="M615.81,191.34l-6.42-5a3,3,0,0,1,1.49-5.35l8.08-1a3,3,0,0,0,.75-5.77l-7.57-3a3,3,0,0,1-.08-5.55l7.48-3.21a3,3,0,0,0-.91-5.75l-8.11-.74a3,3,0,0,1-1.63-5.3l6.27-5.19a3,3,0,0,0-2.49-5.26l-8,1.57a3,3,0,0,1-3.07-4.62l4.56-6.75a3,3,0,0,0-3.87-4.34l-7.23,3.75a3,3,0,0,1-4.24-3.57l2.47-7.76a3,3,0,0,0-4.94-3.07l-5.87,5.64a3,3,0,0,1-5.08-2.24l.19-8.14a3,3,0,0,0-5.61-1.55l-4,7.06a3,3,0,0,1-5.5-.71l-2.12-7.86a3,3,0,0,0-5.82.08l-1.89,7.92a3,3,0,0,1-5.48.86l-4.24-6.94a3,3,0,0,0-5.56,1.72l.42,8.13a3,3,0,0,1-5,2.37l-6-5.47a3,3,0,0,0-4.84,3.22l2.68,7.68a3,3,0,0,1-4.14,3.69l-7.32-3.55a3,3,0,0,0-3.75,4.45l4.75,6.62a3,3,0,0,1-2.94,4.71l-8-1.34a3,3,0,0,0-2.34,5.32l6.42,5a3,3,0,0,1-1.49,5.34l-8.08,1a3,3,0,0,0-.75,5.77l7.57,3a3,3,0,0,1,.08,5.55L497.05,176a3,3,0,0,0,.91,5.74l8.11.75a3,3,0,0,1,1.63,5.3L501.43,193a3,3,0,0,0,2.49,5.26l8-1.57a3,3,0,0,1,3.07,4.62L510.42,208a3,3,0,0,0,3.87,4.34l7.23-3.75a3,3,0,0,1,4.24,3.57l-2.47,7.75a3,3,0,0,0,4.94,3.08l5.87-5.64a3,3,0,0,1,5.08,2.23l-.19,8.14a3,3,0,0,0,5.61,1.56l4-7.06a3,3,0,0,1,5.5.71l2.12,7.86a3,3,0,0,0,5.82-.08l1.89-7.92a3,3,0,0,1,5.48-.87l4.24,6.95a3,3,0,0,0,5.56-1.72l-.41-8.13a3,3,0,0,1,5-2.37l6,5.46a3,3,0,0,0,4.85-3.21L592,211.24a3,3,0,0,1,4.14-3.69l7.32,3.54a3,3,0,0,0,3.75-4.45L602.51,200a3,3,0,0,1,2.93-4.71l8,1.34A3,3,0,0,0,615.81,191.34Zm-43.17-48.4a6.12,6.12,0,0,1,9.59-2.37,37.42,37.42,0,0,1,9.4,11.84,6.13,6.13,0,0,1-4.48,8.81l-20.28,3.31a9.85,9.85,0,0,0-2-2.59Zm-13.32,22.61a3.82,3.82,0,1,1-4.7,2.66A3.82,3.82,0,0,1,559.32,165.55Zm-20.88-27.94a37.32,37.32,0,0,1,14.16-5.29,6.12,6.12,0,0,1,7,7l-3.12,20.32a9.87,9.87,0,0,0-3.08,1.15l-15.66-13.3a6.13,6.13,0,0,1,.71-9.86ZM528.19,184a3.35,3.35,0,0,1-4.88-1.67,37.16,37.16,0,0,1-1-23.06,3.32,3.32,0,0,1,4.71-2.08L548.6,168a9.55,9.55,0,0,0,.14,3.29Zm34.22,21.26a3.31,3.31,0,0,1-2.52,1.33,37.47,37.47,0,0,1-22.23-6.19,3.3,3.3,0,0,1-1.48-2.44,3.36,3.36,0,0,1,1-2.69l17-17.15a9.78,9.78,0,0,0,1.54.58,10.4,10.4,0,0,0,1.63.31L563,202.42A3.32,3.32,0,0,1,562.41,205.21Zm19.1-6.74a3.33,3.33,0,0,1-5-1.09l-11.05-21.45a9.83,9.83,0,0,0,1.82-2.75L591.31,175a3.35,3.35,0,0,1,3,4.22A37.18,37.18,0,0,1,581.51,198.47Z"
          transform="translate(-64.08 -68.29)"/>
    <path class="cls-1"
          d="M785.55,188l4-1.67a41.46,41.46,0,0,0-.73-5.15l-4.35-.46a1.91,1.91,0,0,1-1-3.39l3.41-2.74a41.34,41.34,0,0,0-2.17-4.73l-4.3.78a1.91,1.91,0,0,1-1.91-3l2.5-3.58a44,44,0,0,0-3.41-3.93l-3.9,2a1.91,1.91,0,0,1-2.67-2.31l1.38-4.14a42.22,42.22,0,0,0-4.37-2.81l-3.19,3a1.92,1.92,0,0,1-3.22-1.47l.16-4.37a40.11,40.11,0,0,0-5-1.46l-2.23,3.76a1.92,1.92,0,0,1-3.5-.5L750,147.53c-.86-.05-1.73-.08-2.6-.08s-1.74,0-2.6.08l-1.08,4.23a1.92,1.92,0,0,1-3.5.5L738,148.5a39.77,39.77,0,0,0-5,1.46l.16,4.37A1.91,1.91,0,0,1,730,155.8l-3.2-3a44.47,44.47,0,0,0-4.37,2.81l1.38,4.14a1.91,1.91,0,0,1-2.67,2.31l-3.89-2a41,41,0,0,0-3.41,3.93l2.49,3.58a1.91,1.91,0,0,1-1.91,3l-4.3-.78a41.28,41.28,0,0,0-2.16,4.73l3.41,2.74a1.91,1.91,0,0,1-1,3.39l-4.35.46a43.43,43.43,0,0,0-.73,5.15l4,1.67a1.91,1.91,0,0,1,0,3.53l-4,1.66a43.43,43.43,0,0,0,.73,5.15l4.35.46a1.91,1.91,0,0,1,1,3.39L708,204.9a41.28,41.28,0,0,0,2.16,4.73l4.3-.78a1.91,1.91,0,0,1,1.91,3l-2.49,3.58a39.85,39.85,0,0,0,3.41,3.93l3.89-2a1.91,1.91,0,0,1,2.67,2.31l-1.38,4.14a42.79,42.79,0,0,0,4.37,2.82l3.2-3a1.91,1.91,0,0,1,3.21,1.46l-.16,4.37a41.55,41.55,0,0,0,5,1.47l2.22-3.77a1.91,1.91,0,0,1,3.5.51l1.08,4.22c.86.06,1.72.09,2.6.09s1.74,0,2.6-.09l1.07-4.22a1.91,1.91,0,0,1,3.5-.51l2.23,3.77a41.94,41.94,0,0,0,5-1.47l-.16-4.37a1.91,1.91,0,0,1,3.22-1.46l3.19,3a40.71,40.71,0,0,0,4.37-2.82l-1.38-4.14a1.91,1.91,0,0,1,2.67-2.31l3.9,2A42.69,42.69,0,0,0,781,215.4l-2.5-3.58a1.91,1.91,0,0,1,1.91-3l4.3.78a41.34,41.34,0,0,0,2.17-4.73l-3.41-2.74a1.91,1.91,0,0,1,1-3.39l4.35-.46a41.46,41.46,0,0,0,.73-5.15l-4-1.66A1.91,1.91,0,0,1,785.55,188Zm-58.91,18.32a3.2,3.2,0,1,1,3.2-3.2A3.2,3.2,0,0,1,726.64,206.29Zm-1.47-11.89a4.67,4.67,0,1,1,4.67-4.67A4.67,4.67,0,0,1,725.17,194.4Zm1.47-14.83a3.2,3.2,0,1,1,3.2-3.2A3.2,3.2,0,0,1,726.64,179.57Zm20.8-16.78a4.68,4.68,0,1,1-4.68,4.67A4.67,4.67,0,0,1,747.44,162.79Zm-13.36,3a3.2,3.2,0,1,1-3.2,3.2A3.2,3.2,0,0,1,734.08,165.74Zm0,48a3.2,3.2,0,1,1,3.2-3.2A3.2,3.2,0,0,1,734.08,213.72Zm13.36,2.95a4.67,4.67,0,1,1,4.67-4.67A4.68,4.68,0,0,1,747.44,216.67Zm0-16.78a10.16,10.16,0,1,1,10.15-10.16A10.16,10.16,0,0,1,747.44,199.89Zm13.35,13.83a3.2,3.2,0,1,1,3.2-3.2A3.2,3.2,0,0,1,760.79,213.72Zm0-41.58a3.2,3.2,0,1,1,3.2-3.2A3.21,3.21,0,0,1,760.79,172.14Zm7.44,1a3.2,3.2,0,1,1-3.2,3.2A3.2,3.2,0,0,1,768.23,173.17Zm0,33.12a3.2,3.2,0,1,1,3.2-3.2A3.2,3.2,0,0,1,768.23,206.29Zm1.47-11.89a4.67,4.67,0,1,1,4.68-4.67A4.67,4.67,0,0,1,769.7,194.4Z"
          transform="translate(-64.08 -68.29)"/>
    <path class="cls-1"
          d="M393,683.25a5.59,5.59,0,0,1-2.47-10.88,37.14,37.14,0,0,0-2.35-4.88,5.6,5.6,0,0,1-7-8.73,38.12,38.12,0,0,0-4.23-3.37,5.6,5.6,0,0,1-10.06-4.86,36.8,36.8,0,0,0-5.28-1.2,5.59,5.59,0,0,1-11.16,0,36.8,36.8,0,0,0-5.28,1.2,5.6,5.6,0,0,1-10.06,4.86,38.12,38.12,0,0,0-4.23,3.37,5.6,5.6,0,0,1-7,8.73,37.14,37.14,0,0,0-2.35,4.88,5.59,5.59,0,0,1-2.47,10.88c-.07.89-.11,1.79-.11,2.71s0,1.81.11,2.7a5.6,5.6,0,0,1,2.47,10.89,37,37,0,0,0,2.35,4.87,5.6,5.6,0,0,1,7,8.73,39.4,39.4,0,0,0,4.23,3.38,5.6,5.6,0,0,1,10.06,4.85,36.8,36.8,0,0,0,5.28,1.2,5.6,5.6,0,0,1,11.16,0,36.8,36.8,0,0,0,5.28-1.2A5.6,5.6,0,0,1,377,716.53a39.4,39.4,0,0,0,4.23-3.38,5.6,5.6,0,0,1,7-8.73,37,37,0,0,0,2.35-4.87A5.6,5.6,0,0,1,393,688.66c.07-.89.11-1.79.11-2.7S393.05,684.14,393,683.25Zm-36.93,26.08A23.38,23.38,0,1,1,379.42,686,23.37,23.37,0,0,1,356.05,709.33Z"
          transform="translate(-64.08 -68.29)"/>
    <path class="cls-1"
          d="M330.19,168.64a2.31,2.31,0,0,0-2.26-2.19,12.58,12.58,0,0,1-5.43-23.8,2.31,2.31,0,0,0,1.09-3c-1-2.3-2.07-4.55-3.25-6.73a2.32,2.32,0,0,0-3-1,12.58,12.58,0,0,1-15.22-19.08,2.31,2.31,0,0,0-.31-3.14q-2.82-2.46-5.85-4.67a2.3,2.3,0,0,0-3.13.39,12.58,12.58,0,0,1-22-10.61,2.3,2.3,0,0,0-1.65-2.69q-3.58-1-7.29-1.67a2.31,2.31,0,0,0-2.65,1.72,12.58,12.58,0,0,1-24.42,0,2.31,2.31,0,0,0-2.65-1.72q-3.72.68-7.3,1.67a2.3,2.3,0,0,0-1.64,2.69,12.58,12.58,0,0,1-22,10.61,2.31,2.31,0,0,0-3.14-.39q-3,2.2-5.84,4.67a2.3,2.3,0,0,0-.32,3.14,12.58,12.58,0,0,1-15.22,19.08,2.3,2.3,0,0,0-3,1c-1.18,2.18-2.27,4.43-3.25,6.73a2.31,2.31,0,0,0,1.08,3,12.58,12.58,0,0,1-5.42,23.8,2.31,2.31,0,0,0-2.26,2.19c-.06,1.25-.1,2.5-.1,3.76s0,2.51.1,3.75a2.31,2.31,0,0,0,2.26,2.19,12.58,12.58,0,0,1,5.42,23.8,2.31,2.31,0,0,0-1.08,3c1,2.3,2.07,4.55,3.25,6.74a2.3,2.3,0,0,0,3,1A12.58,12.58,0,0,1,192,231.93a2.31,2.31,0,0,0,.32,3.14c1.87,1.65,3.82,3.2,5.84,4.67a2.31,2.31,0,0,0,3.14-.39,12.58,12.58,0,0,1,22,10.61,2.32,2.32,0,0,0,1.64,2.7q3.59,1,7.3,1.66a2.3,2.3,0,0,0,2.65-1.72,12.58,12.58,0,0,1,24.42,0,2.3,2.3,0,0,0,2.65,1.72q3.71-.67,7.29-1.66a2.31,2.31,0,0,0,1.65-2.7,12.58,12.58,0,0,1,22-10.61,2.3,2.3,0,0,0,3.13.39c2-1.47,4-3,5.85-4.67a2.31,2.31,0,0,0,.31-3.14,12.58,12.58,0,0,1,15.22-19.08,2.31,2.31,0,0,0,3-1q1.77-3.28,3.25-6.74a2.31,2.31,0,0,0-1.09-3,12.58,12.58,0,0,1,5.43-23.8,2.31,2.31,0,0,0,2.26-2.19c.06-1.24.1-2.49.1-3.75S330.25,169.89,330.19,168.64ZM247,186.37a14,14,0,1,1,14-14A14,14,0,0,1,247,186.37Z"
          transform="translate(-64.08 -68.29)"/>
</svg>