<?xml version="1.0" encoding="utf-8"?>
<svg id="Layer_1" data-name="Layer 1" viewBox="5 0 626 594" preserveAspectRatio="xMidYMid slice" xmlns="http://www.w3.org/2000/svg">
  <defs>
    <style>.cls-1{fill:whitesmoke}</style>
    <style>.cls-2{fill:#f87f58;}</style>
    <style>.cls-3{fill:#FFBD12;}</style>
    <style>.cls-4{fill: yellowgreen;}</style>
  </defs>
  <title>All_Gears_cutfile</title>
  <path class="cls-2" d="M 595.323 349.098 C 606.574 349.098 615.694 340.416 615.694 329.704 L 615.694 266.046 C 615.694 255.335 606.574 246.652 595.323 246.652 L 560.688 246.652 C 555.698 246.657 551.332 243.458 550.057 238.865 C 544.453 218.7 536.013 199.351 524.96 181.339 C 522.409 177.219 523.115 171.978 526.678 168.607 L 551.193 145.266 C 559.156 137.691 559.156 125.405 551.193 117.831 L 503.876 72.803 C 495.929 65.224 483.028 65.224 475.08 72.803 L 450.564 96.143 C 447.022 99.535 441.518 100.207 437.191 97.777 C 418.288 87.245 397.97 79.207 376.791 73.884 C 371.962 72.677 368.599 68.515 368.612 63.763 L 368.612 30.789 C 368.612 20.077 359.49 11.394 348.241 11.394 L 281.377 11.394 C 270.126 11.394 261.006 20.077 261.006 30.789 L 261.006 63.763 C 261.006 68.521 257.635 72.679 252.803 73.884 C 231.616 79.229 211.288 87.287 192.382 97.842 C 188.054 100.271 182.55 99.598 179.008 96.207 L 154.492 72.866 C 146.535 65.287 133.63 65.287 125.674 72.866 L 78.378 117.893 C 70.416 125.469 70.416 137.755 78.378 145.331 L 102.894 168.672 C 106.457 172.043 107.163 177.284 104.612 181.404 C 93.536 199.404 85.094 218.755 79.515 238.928 C 78.239 243.528 73.861 246.728 68.862 246.716 L 34.293 246.716 C 23.042 246.716 13.922 255.398 13.922 266.11 L 13.922 329.767 C 13.922 340.479 23.042 349.162 34.293 349.162 L 68.996 349.162 C 73.974 349.2 78.325 352.379 79.648 356.95 C 85.205 377.095 93.619 396.427 104.656 414.412 C 107.149 418.54 106.45 423.747 102.94 427.144 L 78.423 450.485 C 70.462 458.06 70.462 470.346 78.423 477.92 L 125.718 522.948 C 133.674 530.529 146.58 530.529 154.537 522.948 L 179.053 499.606 C 182.595 496.215 188.1 495.544 192.426 497.973 C 211.326 508.513 231.646 516.551 252.825 521.866 C 257.657 523.071 261.028 527.23 261.028 531.988 L 261.028 564.962 C 261.028 575.674 270.148 584.357 281.399 584.357 L 348.262 584.357 C 359.514 584.357 368.634 575.674 368.634 564.962 L 368.634 531.946 C 368.623 527.191 371.983 523.031 376.813 521.823 C 397.993 516.513 418.315 508.474 437.213 497.93 C 441.55 495.556 447.019 496.223 450.587 499.564 L 475.103 522.906 C 483.051 530.482 495.95 530.482 503.899 522.906 L 551.217 477.878 C 559.177 470.303 559.177 458.017 551.217 450.442 L 526.699 427.1 C 523.131 423.733 522.425 418.485 524.983 414.37 C 536.038 396.359 544.48 377.01 550.079 356.844 C 551.354 352.252 555.721 349.052 560.71 349.056 Z M 314.809 436.883 C 202.395 436.883 132.135 321.026 188.342 228.34 C 244.551 135.654 385.066 135.654 441.274 228.34 C 454.089 249.474 460.838 273.451 460.838 297.854 C 460.751 374.605 395.423 436.8 314.809 436.883 Z" style=""/>
  <path class="cls-3" d="M 431.641 283.865 C 430.17 272.816 438.236 262.586 450.189 260.343 C 448.16 254.063 445.61 247.931 442.569 242.002 C 426.916 250.194 407.409 239.859 407.457 223.398 C 407.474 217.032 410.601 211.007 415.987 206.957 C 410.997 202.255 405.625 197.906 399.913 193.948 C 390.169 207.802 367.631 206.841 359.348 192.216 C 356.167 186.593 355.876 179.971 358.56 174.133 C 351.754 172.089 344.786 170.521 337.721 169.441 C 336.129 185.836 315.675 194.516 300.901 185.062 C 295.24 181.439 291.623 175.724 291.013 169.441 C 283.946 170.521 276.981 172.089 270.173 174.133 C 277.151 189.312 263.496 205.692 245.593 203.613 C 238.71 202.816 232.568 199.276 228.82 193.948 C 223.109 197.906 217.737 202.255 212.749 206.957 C 226.672 217.429 222.946 237.723 206.041 243.485 C 199.505 245.713 192.218 245.171 186.165 242.002 C 183.123 247.931 180.575 254.063 178.545 260.343 C 196.213 263.702 203.269 283.248 191.245 295.522 C 186.605 300.26 179.891 302.871 172.931 302.648 C 173.264 309.188 174.135 315.697 175.534 322.117 C 192.893 317.604 209.097 331.92 204.702 347.888 C 203.009 354.045 198.402 359.197 192.129 361.95 C 195.749 367.606 199.833 373.002 204.345 378.095 C 217.43 366.756 239.064 372.588 243.289 388.592 C 244.915 394.754 243.463 401.257 239.319 406.345 C 245.392 409.83 251.749 412.89 258.334 415.493 C 264.097 399.89 286.212 395.831 298.144 408.184 C 302.753 412.954 304.794 419.353 303.712 425.637 C 307.268 425.889 310.838 426.042 314.458 426.042 C 318.08 426.042 321.648 425.889 325.203 425.637 C 322.401 409.376 339.953 396.448 356.791 402.366 C 363.301 404.652 368.354 409.463 370.581 415.493 C 377.167 412.89 383.524 409.83 389.596 406.345 C 378.838 393.13 387.8 374.246 405.726 372.354 C 412.629 371.626 419.531 373.73 424.568 378.095 C 429.082 373.002 433.165 367.606 436.787 361.95 C 420.523 354.811 418.831 334.293 433.74 325.019 C 439.491 321.441 446.685 320.379 453.381 322.117 C 454.78 315.697 455.651 309.188 455.984 302.648 C 443.734 303.157 433.121 294.97 431.641 283.865 Z M 364.695 304.133 L 361.02 307.09 L 362.832 311.236 L 358.691 313.613 L 359.757 317.972 L 355.264 319.741 L 355.577 324.186 L 350.835 325.29 L 350.367 329.732 L 345.497 330.16 L 344.286 334.472 L 339.413 334.2 L 337.512 338.311 L 332.731 337.336 L 330.127 341.101 L 325.581 339.462 L 322.349 342.8 L 318.143 340.53 L 314.367 343.371 L 310.59 340.53 L 306.382 342.8 L 303.14 339.462 L 298.593 341.101 L 295.987 337.336 L 291.221 338.311 L 289.28 334.212 L 284.397 334.484 L 283.185 330.16 L 278.313 329.746 L 277.859 325.301 L 273.119 324.198 L 273.432 319.741 L 268.936 317.972 L 270.005 313.624 L 265.862 311.248 L 267.671 307.102 L 264 304.142 L 266.501 300.308 L 263.27 296.862 L 266.384 293.417 L 263.882 289.579 L 267.557 286.621 L 265.877 282.476 L 270.005 280.1 L 268.936 275.739 L 273.432 273.97 L 273.13 269.526 L 277.859 268.421 L 278.328 263.978 L 283.199 263.552 L 284.411 259.24 L 289.295 259.514 L 291.221 255.414 L 296.003 256.388 L 298.606 252.622 L 303.151 254.26 L 306.382 250.923 L 310.59 253.193 L 314.367 250.352 L 318.143 253.204 L 322.349 250.923 L 325.593 254.26 L 330.14 252.622 L 332.745 256.388 L 337.512 255.414 L 339.45 259.514 L 344.337 259.24 L 345.548 263.563 L 350.42 263.978 L 350.874 268.421 L 355.617 269.526 L 355.318 273.981 L 359.797 275.752 L 358.742 280.1 L 362.871 282.476 L 361.059 286.621 L 364.733 289.579 L 362.258 293.417 L 365.371 296.862 L 362.258 300.296 Z" style=""/>
  <path class="cls-4" d="M 344.526 308.06 C 344.703 307.576 344.864 307.078 345.009 306.566 C 345.009 306.352 345.142 306.124 345.2 305.896 L 345.375 305.242 L 345.552 304.502 L 345.683 303.862 C 345.683 303.592 345.786 303.322 345.83 303.064 C 345.823 303.032 345.823 302.998 345.83 302.966 L 349.536 302.724 L 354.927 301.016 L 354.927 295.096 L 349.536 293.404 L 345.83 293.162 C 345.488 291.096 344.928 289.069 344.16 287.114 L 347.251 285.108 L 351.045 281.01 L 347.998 275.888 L 342.446 277.026 L 339.121 278.692 L 338.535 278.022 L 338.403 277.88 C 338.14 277.586 337.862 277.287 337.568 276.984 L 337.437 276.856 L 336.557 275.988 L 336.425 275.874 C 336.118 275.59 335.811 275.304 335.488 275.034 L 335.386 274.948 C 335.122 274.722 334.858 274.494 334.58 274.28 L 336.221 271.036 L 337.393 265.644 L 332.134 262.612 L 327.915 266.298 L 325.849 269.3 C 324.897 268.944 323.931 268.646 322.92 268.376 L 322.92 268.376 C 321.829 268.084 320.726 267.852 319.609 267.678 L 319.359 264.078 L 317.617 258.842 L 311.523 258.842 L 309.765 264.078 L 309.516 267.678 C 308.406 267.851 307.304 268.082 306.22 268.376 L 306.22 268.376 C 305.239 268.646 304.257 268.944 303.29 269.3 L 301.21 266.298 L 296.977 262.612 L 291.704 265.572 L 292.89 270.964 L 294.531 274.21 L 293.71 274.878 L 293.607 274.964 C 293.285 275.234 292.978 275.518 292.67 275.802 C 292.627 275.837 292.588 275.875 292.553 275.916 C 292.246 276.202 291.952 276.486 291.66 276.784 L 291.527 276.912 L 290.692 277.808 C 290.645 277.849 290.606 277.897 290.575 277.952 C 290.37 278.164 290.165 278.392 289.975 278.62 L 286.723 277.026 L 281.171 275.888 L 278.124 281.01 L 281.918 285.108 L 285.009 287.114 C 284.247 289.069 283.694 291.096 283.354 293.162 L 279.633 293.404 L 274.242 295.096 L 274.242 301.016 L 279.633 302.724 L 283.354 302.966 C 283.348 302.998 283.348 303.032 283.354 303.064 C 283.354 303.322 283.442 303.592 283.5 303.862 C 283.559 304.132 283.573 304.288 283.632 304.502 C 283.69 304.716 283.749 305 283.808 305.242 C 283.867 305.484 283.91 305.682 283.969 305.896 C 284.028 306.11 284.101 306.352 284.159 306.566 C 284.306 307.078 284.481 307.576 284.642 308.06 C 284.642 308.202 284.745 308.33 284.789 308.472 C 284.833 308.614 284.921 308.828 284.994 308.998 L 281.904 311.018 L 278.109 315.116 L 281.156 320.24 L 286.708 319.086 L 290.048 317.492 C 291.409 319.113 292.935 320.596 294.603 321.918 L 292.963 325.162 L 291.777 330.554 L 297.049 333.514 L 301.269 329.83 L 303.349 326.826 L 303.349 326.826 L 304.52 327.24 L 304.741 327.31 L 305.825 327.624 L 306.177 327.724 L 307.172 327.966 L 307.641 328.08 L 308.579 328.264 L 309.164 328.364 L 309.516 328.364 L 309.765 331.978 L 311.523 337.214 L 317.617 337.214 L 319.359 331.978 L 319.609 328.364 L 319.961 328.364 L 320.561 328.264 L 321.485 328.08 L 321.952 327.966 L 322.963 327.724 L 323.315 327.624 L 324.384 327.31 L 324.604 327.24 L 325.777 326.826 L 325.777 326.826 L 327.842 329.83 L 332.06 333.514 L 337.334 330.554 L 336.163 325.162 L 334.522 321.918 C 336.183 320.592 337.703 319.109 339.062 317.492 L 342.402 319.086 L 347.954 320.24 L 351.002 315.116 L 347.207 311.018 L 344.117 308.998 C 344.117 308.828 344.262 308.642 344.322 308.472 C 344.38 308.302 344.483 308.202 344.526 308.06 Z M 291.923 299.522 C 291.923 299.024 291.923 298.512 291.923 298 C 291.921 292.823 293.805 287.813 297.24 283.856 C 301.635 286.532 304.096 290.7 302.88 294.3 C 301.665 297.9 297.138 299.948 291.923 299.578 Z M 309.047 319.442 C 303.362 318.051 298.449 314.579 295.336 309.752 C 299.336 306.48 304.125 305.484 307.304 307.76 C 310.483 310.036 311.01 314.732 309.047 319.442 Z M 314.555 286.076 C 310.644 286.076 307.318 282.548 306.058 277.624 C 311.504 275.48 317.593 275.48 323.037 277.624 C 321.791 282.548 318.467 286.076 314.555 286.076 Z M 320.063 319.442 C 318.101 314.732 318.598 309.994 321.807 307.76 C 325.014 305.526 329.775 306.48 333.774 309.752 C 330.669 314.579 325.76 318.051 320.078 319.442 Z M 337.188 299.522 C 331.972 299.892 327.49 297.9 326.289 294.3 C 325.088 290.7 327.504 286.532 331.943 283.856 C 335.374 287.814 337.252 292.824 337.246 298 C 337.26 298.612 337.232 299.08 337.202 299.578 Z" style=""/>
</svg>