<svg id="visual" viewBox="0 0 900 600" width="900" height="600" xmlns="http://www.w3.org/2000/svg" xmlns:xlink="http://www.w3.org/1999/xlink" version="1.1"><path d="M0 61L45 61L90 61L135 55L180 49L225 49L270 61L315 37L360 55L405 61L450 37L495 61L540 37L585 43L630 37L675 55L720 55L765 55L810 37L855 67L900 49L900 0L855 0L810 0L765 0L720 0L675 0L630 0L585 0L540 0L495 0L450 0L405 0L360 0L315 0L270 0L225 0L180 0L135 0L90 0L45 0L0 0Z" fill="#001122"></path><path d="M0 85L45 91L90 109L135 91L180 91L225 91L270 103L315 79L360 97L405 97L450 73L495 103L540 67L585 79L630 73L675 91L720 85L765 91L810 67L855 91L900 91L900 47L855 65L810 35L765 53L720 53L675 53L630 35L585 41L540 35L495 59L450 35L405 59L360 53L315 35L270 59L225 47L180 47L135 53L90 59L45 59L0 59Z" fill="#071326"></path><path d="M0 139L45 139L90 145L135 145L180 139L225 157L270 163L315 127L360 169L405 163L450 115L495 163L540 133L585 145L630 115L675 151L720 151L765 145L810 115L855 145L900 157L900 89L855 89L810 65L765 89L720 83L675 89L630 71L585 77L540 65L495 101L450 71L405 95L360 95L315 77L270 101L225 89L180 89L135 89L90 107L45 89L0 83Z" fill="#0f142a"></path><path d="M0 163L45 175L90 175L135 163L180 163L225 193L270 199L315 163L360 187L405 181L450 139L495 181L540 163L585 175L630 145L675 175L720 187L765 163L810 151L855 175L900 175L900 155L855 143L810 113L765 143L720 149L675 149L630 113L585 143L540 131L495 161L450 113L405 161L360 167L315 125L270 161L225 155L180 137L135 143L90 143L45 137L0 137Z" fill="#17152d"></path><path d="M0 205L45 217L90 205L135 187L180 199L225 235L270 235L315 205L360 211L405 211L450 169L495 223L540 193L585 211L630 169L675 205L720 217L765 193L810 181L855 205L900 211L900 173L855 173L810 149L765 161L720 185L675 173L630 143L585 173L540 161L495 179L450 137L405 179L360 185L315 161L270 197L225 191L180 161L135 161L90 173L45 173L0 161Z" fill="#20152f"></path><path d="M0 325L45 319L90 331L135 295L180 355L225 307L270 325L315 355L360 295L405 325L450 307L495 343L540 313L585 319L630 337L675 319L720 313L765 295L810 319L855 295L900 319L900 209L855 203L810 179L765 191L720 215L675 203L630 167L585 209L540 191L495 221L450 167L405 209L360 209L315 203L270 233L225 233L180 197L135 185L90 203L45 215L0 203Z" fill="#281530"></path><path d="M0 367L45 373L90 373L135 349L180 409L225 349L270 355L315 403L360 337L405 373L450 355L495 373L540 367L585 355L630 373L675 349L720 355L765 349L810 373L855 337L900 367L900 317L855 293L810 317L765 293L720 311L675 317L630 335L585 317L540 311L495 341L450 305L405 323L360 293L315 353L270 323L225 305L180 353L135 293L90 329L45 317L0 323Z" fill="#311430"></path><path d="M0 511L45 493L90 487L135 511L180 523L225 487L270 475L315 517L360 493L405 481L450 493L495 499L540 475L585 481L630 481L675 481L720 517L765 487L810 511L855 517L900 499L900 365L855 335L810 371L765 347L720 353L675 347L630 371L585 353L540 365L495 371L450 353L405 371L360 335L315 401L270 353L225 347L180 407L135 347L90 371L45 371L0 365Z" fill="#3a132f"></path><path d="M0 565L45 571L90 565L135 565L180 577L225 565L270 565L315 577L360 571L405 571L450 565L495 577L540 565L585 577L630 565L675 571L720 571L765 571L810 571L855 571L900 565L900 497L855 515L810 509L765 485L720 515L675 479L630 479L585 479L540 473L495 497L450 491L405 479L360 491L315 515L270 473L225 485L180 521L135 509L90 485L45 491L0 509Z" fill="#42122d"></path><path d="M0 601L45 601L90 601L135 601L180 601L225 601L270 601L315 601L360 601L405 601L450 601L495 601L540 601L585 601L630 601L675 601L720 601L765 601L810 601L855 601L900 601L900 563L855 569L810 569L765 569L720 569L675 569L630 563L585 575L540 563L495 575L450 563L405 569L360 569L315 575L270 563L225 563L180 575L135 563L90 563L45 569L0 563Z" fill="#491129"></path></svg>